<svg width="530" height="137" viewBox="0 0 530 137" fill="none" xmlns="http://www.w3.org/2000/svg">
<mask id="path-1-inside-1_48_8" fill="white">
<path d="M0.767578 3.56299H26.146C42.5278 3.56299 53.5923 4.31494 59.3394 5.81885C65.1401 7.32275 69.5444 9.79346 72.5522 13.231C75.5601 16.6685 77.4399 20.5088 78.1919 24.752C78.9438 28.9414 79.3198 37.2129 79.3198 49.5664V95.2476C79.3198 106.957 78.7559 114.798 77.6279 118.773C76.5537 122.694 74.647 125.782 71.9077 128.038C69.1685 130.24 65.7847 131.798 61.7563 132.711C57.728 133.57 51.6587 134 43.5483 134H0.767578V3.56299ZM34.686 25.8799V111.683C39.5737 111.683 42.5815 110.716 43.7095 108.783C44.8374 106.795 45.4014 101.451 45.4014 92.75V42.0737C45.4014 36.1655 45.2134 32.3789 44.8374 30.7139C44.4614 29.0488 43.6021 27.8403 42.2593 27.0884C40.9165 26.2827 38.3921 25.8799 34.686 25.8799ZM91.9688 3.56299H148.526V29.6665H125.887V54.4004H147.076V79.2148H125.887V107.896H150.782V134H91.9688V3.56299ZM241.178 3.56299L223.937 134H172.455L152.877 3.56299H188.648C192.784 39.4956 195.738 69.8691 197.511 94.6836C199.283 69.6006 201.136 47.3105 203.07 27.8135L205.406 3.56299H241.178ZM280.897 3.56299V134H246.979V3.56299H280.897ZM373.709 60.4429H339.791V37.7231C339.791 31.1167 339.415 27.0078 338.663 25.3965C337.965 23.7314 336.38 22.8989 333.91 22.8989C331.117 22.8989 329.344 23.8926 328.592 25.8799C327.84 27.8672 327.464 32.1641 327.464 38.7705V99.3564C327.464 105.694 327.84 109.83 328.592 111.764C329.344 113.697 331.036 114.664 333.668 114.664C336.192 114.664 337.831 113.697 338.583 111.764C339.388 109.83 339.791 105.292 339.791 98.1479V81.793H373.709V86.8687C373.709 100.35 372.743 109.911 370.809 115.55C368.929 121.19 364.713 126.131 358.16 130.375C351.661 134.618 343.631 136.739 334.071 136.739C324.134 136.739 315.943 134.94 309.498 131.341C303.053 127.743 298.783 122.774 296.688 116.437C294.593 110.045 293.546 100.458 293.546 87.6743V49.5664C293.546 40.167 293.868 33.1309 294.513 28.458C295.157 23.7314 297.064 19.1929 300.233 14.8423C303.456 10.4917 307.887 7.08105 313.526 4.61035C319.22 2.08594 325.746 0.82373 333.104 0.82373C343.094 0.82373 351.339 2.75732 357.838 6.62451C364.337 10.4917 368.607 15.3257 370.648 21.1265C372.689 26.8735 373.709 35.8433 373.709 48.0356V60.4429ZM385.875 3.56299H442.433V29.6665H419.793V54.4004H440.982V79.2148H419.793V107.896H444.688V134H385.875V3.56299ZM526.383 43.0405H494.881V33.3726C494.881 28.8608 494.479 25.9873 493.673 24.752C492.867 23.5166 491.524 22.8989 489.645 22.8989C487.604 22.8989 486.046 23.7314 484.972 25.3965C483.951 27.0615 483.441 29.5859 483.441 32.9697C483.441 37.3203 484.032 40.5967 485.213 42.7988C486.341 45.001 489.537 47.6597 494.801 50.7749C509.894 59.7446 519.4 67.103 523.321 72.8501C527.242 78.5972 529.203 87.8623 529.203 100.646C529.203 109.938 528.102 116.786 525.899 121.19C523.751 125.594 519.562 129.3 513.331 132.308C507.101 135.262 499.85 136.739 491.578 136.739C482.501 136.739 474.74 135.021 468.294 131.583C461.903 128.146 457.713 123.768 455.726 118.451C453.739 113.133 452.745 105.587 452.745 95.8115V87.2715H484.247V103.143C484.247 108.031 484.676 111.173 485.536 112.569C486.449 113.966 488.033 114.664 490.289 114.664C492.545 114.664 494.21 113.778 495.284 112.005C496.412 110.233 496.976 107.601 496.976 104.11C496.976 96.4292 495.929 91.4072 493.834 89.0439C491.686 86.6807 486.395 82.7329 477.962 77.2007C469.53 71.6147 463.944 67.5596 461.205 65.0352C458.465 62.5107 456.183 59.0195 454.356 54.5615C452.584 50.1035 451.698 44.4102 451.698 37.4814C451.698 27.4912 452.96 20.1865 455.484 15.5674C458.062 10.9482 462.198 7.34961 467.892 4.77148C473.585 2.13965 480.46 0.82373 488.517 0.82373C497.325 0.82373 504.818 2.24707 510.995 5.09375C517.225 7.94043 521.334 11.5391 523.321 15.8896C525.362 20.1865 526.383 27.5181 526.383 37.8843V43.0405Z"/>
</mask>
<path d="M0.767578 3.56299V-0.187012H-2.98242V3.56299H0.767578ZM59.3394 5.81885L58.39 9.4467L58.3982 9.44884L59.3394 5.81885ZM78.1919 24.752L74.4994 25.4063L74.5009 25.4144L78.1919 24.752ZM77.6279 118.773L74.0204 117.749L74.0157 117.766L74.0112 117.782L77.6279 118.773ZM71.9077 128.038L74.2573 130.961L74.2745 130.947L74.2916 130.933L71.9077 128.038ZM61.7563 132.711L62.5387 136.378L62.5621 136.373L62.5853 136.368L61.7563 132.711ZM0.767578 134H-2.98242V137.75H0.767578V134ZM34.686 25.8799V22.1299H30.936V25.8799H34.686ZM34.686 111.683H30.936V115.433H34.686V111.683ZM43.7095 108.783L46.9486 110.672L46.9598 110.653L46.9708 110.634L43.7095 108.783ZM42.2593 27.0884L40.3299 30.304L40.378 30.3329L40.427 30.3603L42.2593 27.0884ZM0.767578 7.31299H26.146V-0.187012H0.767578V7.31299ZM26.146 7.31299C42.5811 7.31299 53.1774 8.08265 58.39 9.44669L60.2887 2.191C54.0072 0.547236 42.4746 -0.187012 26.146 -0.187012V7.31299ZM58.3982 9.44884C63.6944 10.8219 67.352 12.9826 69.7301 15.7003L75.3744 10.7616C71.7368 6.60432 66.5858 3.82359 60.2805 2.18886L58.3982 9.44884ZM69.7301 15.7003C72.3159 18.6556 73.874 21.877 74.4994 25.4063L81.8844 24.0976C81.0059 19.1406 78.8042 14.6813 75.3744 10.7616L69.7301 15.7003ZM74.5009 25.4144C75.1845 29.2232 75.5698 37.1643 75.5698 49.5664H83.0698C83.0698 37.2614 82.7032 28.6596 81.8829 24.0895L74.5009 25.4144ZM75.5698 49.5664V95.2476H83.0698V49.5664H75.5698ZM75.5698 95.2476C75.5698 107.026 74.9841 114.353 74.0204 117.749L81.2355 119.797C82.5276 115.244 83.0698 106.887 83.0698 95.2476H75.5698ZM74.0112 117.782C73.1107 121.069 71.5812 123.449 69.5238 125.143L74.2916 130.933C77.7127 128.115 79.9967 124.319 81.2447 119.764L74.0112 117.782ZM69.5581 125.115C67.3347 126.903 64.4965 128.245 60.9274 129.054L62.5853 136.368C67.0729 135.351 71.0022 133.578 74.2573 130.961L69.5581 125.115ZM60.974 129.043C57.3444 129.818 51.5969 130.25 43.5483 130.25V137.75C51.7205 137.75 58.1117 137.323 62.5387 136.378L60.974 129.043ZM43.5483 130.25H0.767578V137.75H43.5483V130.25ZM4.51758 134V3.56299H-2.98242V134H4.51758ZM30.936 25.8799V111.683H38.436V25.8799H30.936ZM34.686 115.433C37.3308 115.433 39.7357 115.177 41.7552 114.528C43.779 113.878 45.7576 112.714 46.9486 110.672L40.4703 106.893C40.5334 106.785 40.4442 107.072 39.4601 107.388C38.4718 107.706 36.9289 107.933 34.686 107.933V115.433ZM46.9708 110.634C47.958 108.894 48.4255 106.351 48.7077 103.678C49.0092 100.82 49.1514 97.1624 49.1514 92.75H41.6514C41.6514 97.0388 41.5115 100.404 41.2491 102.891C41.1179 104.134 40.962 105.099 40.7957 105.82C40.7133 106.177 40.6343 106.447 40.5656 106.644C40.5318 106.741 40.503 106.812 40.4811 106.862C40.459 106.913 40.447 106.934 40.4482 106.932L46.9708 110.634ZM49.1514 92.75V42.0737H41.6514V92.75H49.1514ZM49.1514 42.0737C49.1514 36.2817 48.9818 32.0423 48.4953 29.8879L41.1795 31.5398C41.445 32.7156 41.6514 36.0494 41.6514 42.0737H49.1514ZM48.4953 29.8879C47.9136 27.3118 46.4694 25.1481 44.0915 23.8165L40.427 30.3603C40.7347 30.5326 41.0092 30.7858 41.1795 31.5398L48.4953 29.8879ZM44.1886 23.8728C42.9279 23.1164 41.4237 22.7141 39.9498 22.4789C38.4267 22.2358 36.6573 22.1299 34.686 22.1299V29.6299C36.4209 29.6299 37.7667 29.7254 38.768 29.8852C39.8185 30.0528 40.2478 30.2547 40.3299 30.304L44.1886 23.8728ZM91.9688 3.56299V-0.187012H88.2188V3.56299H91.9688ZM148.526 3.56299H152.276V-0.187012H148.526V3.56299ZM148.526 29.6665V33.4165H152.276V29.6665H148.526ZM125.887 29.6665V25.9165H122.137V29.6665H125.887ZM125.887 54.4004H122.137V58.1504H125.887V54.4004ZM147.076 54.4004H150.826V50.6504H147.076V54.4004ZM147.076 79.2148V82.9648H150.826V79.2148H147.076ZM125.887 79.2148V75.4648H122.137V79.2148H125.887ZM125.887 107.896H122.137V111.646H125.887V107.896ZM150.782 107.896H154.532V104.146H150.782V107.896ZM150.782 134V137.75H154.532V134H150.782ZM91.9688 134H88.2188V137.75H91.9688V134ZM91.9688 7.31299H148.526V-0.187012H91.9688V7.31299ZM144.776 3.56299V29.6665H152.276V3.56299H144.776ZM148.526 25.9165H125.887V33.4165H148.526V25.9165ZM122.137 29.6665V54.4004H129.637V29.6665H122.137ZM125.887 58.1504H147.076V50.6504H125.887V58.1504ZM143.326 54.4004V79.2148H150.826V54.4004H143.326ZM147.076 75.4648H125.887V82.9648H147.076V75.4648ZM122.137 79.2148V107.896H129.637V79.2148H122.137ZM125.887 111.646H150.782V104.146H125.887V111.646ZM147.032 107.896V134H154.532V107.896H147.032ZM150.782 130.25H91.9688V137.75H150.782V130.25ZM95.7188 134V3.56299H88.2188V134H95.7188ZM241.178 3.56299L244.895 4.05439L245.456 -0.187012H241.178V3.56299ZM223.937 134V137.75H227.223L227.654 134.491L223.937 134ZM172.455 134L168.746 134.557L169.225 137.75H172.455V134ZM152.877 3.56299V-0.187012H148.522L149.168 4.1196L152.877 3.56299ZM188.648 3.56299L192.374 3.1342L191.992 -0.187012H188.648V3.56299ZM197.511 94.6836L193.77 94.9508L201.251 94.9479L197.511 94.6836ZM203.07 27.8135L206.802 28.1836L206.803 28.1731L203.07 27.8135ZM205.406 3.56299V-0.187012H202L201.674 3.20336L205.406 3.56299ZM237.46 3.07159L220.219 133.509L227.654 134.491L244.895 4.05439L237.46 3.07159ZM223.937 130.25H172.455V137.75H223.937V130.25ZM176.163 133.443L156.585 3.00638L149.168 4.1196L168.746 134.557L176.163 133.443ZM152.877 7.31299H188.648V-0.187012H152.877V7.31299ZM184.923 3.99177C189.055 39.8924 192.003 70.2084 193.77 94.9508L201.251 94.4164C199.474 69.5299 196.513 39.0988 192.374 3.1342L184.923 3.99177ZM201.251 94.9479C203.022 69.8909 204.872 47.6372 206.802 28.1836L199.338 27.4434C197.4 46.9839 195.544 69.3103 193.77 94.4193L201.251 94.9479ZM206.803 28.1731L209.139 3.92262L201.674 3.20336L199.337 27.4538L206.803 28.1731ZM205.406 7.31299H241.178V-0.187012H205.406V7.31299ZM280.897 3.56299H284.647V-0.187012H280.897V3.56299ZM280.897 134V137.75H284.647V134H280.897ZM246.979 134H243.229V137.75H246.979V134ZM246.979 3.56299V-0.187012H243.229V3.56299H246.979ZM277.147 3.56299V134H284.647V3.56299H277.147ZM280.897 130.25H246.979V137.75H280.897V130.25ZM250.729 134V3.56299H243.229V134H250.729ZM246.979 7.31299H280.897V-0.187012H246.979V7.31299ZM373.709 60.4429V64.1929H377.459V60.4429H373.709ZM339.791 60.4429H336.041V64.1929H339.791V60.4429ZM338.663 25.3965L335.205 26.8467L335.234 26.9151L335.265 26.9823L338.663 25.3965ZM338.583 111.764L335.121 110.321L335.104 110.363L335.087 110.404L338.583 111.764ZM339.791 81.793V78.043H336.041V81.793H339.791ZM373.709 81.793H377.459V78.043H373.709V81.793ZM370.809 115.55L367.262 114.334L367.257 114.349L367.252 114.364L370.809 115.55ZM358.16 130.375L356.122 127.227L356.11 127.235L358.16 130.375ZM296.688 116.437L293.124 117.604L293.127 117.613L296.688 116.437ZM294.513 28.458L298.228 28.9704L298.228 28.9647L294.513 28.458ZM300.233 14.8423L297.22 12.6102L297.211 12.6223L297.202 12.6344L300.233 14.8423ZM313.526 4.61035L315.031 8.04519L315.039 8.04185L315.046 8.03848L313.526 4.61035ZM370.648 21.1265L367.111 22.3711L367.114 22.3814L370.648 21.1265ZM373.709 56.6929H339.791V64.1929H373.709V56.6929ZM343.541 60.4429V37.7231H336.041V60.4429H343.541ZM343.541 37.7231C343.541 34.3648 343.446 31.5595 343.243 29.3449C343.054 27.2787 342.739 25.2636 342.061 23.8107L335.265 26.9823C335.259 26.9703 335.286 27.0255 335.33 27.1765C335.373 27.3231 335.424 27.527 335.477 27.7987C335.585 28.3469 335.688 29.0817 335.775 30.0284C335.948 31.9227 336.041 34.4751 336.041 37.7231H343.541ZM342.121 23.9463C341.439 22.3181 340.266 21.0289 338.695 20.2037C337.2 19.4179 335.534 19.1489 333.91 19.1489V26.6489C334.756 26.6489 335.118 26.7962 335.207 26.843C335.241 26.8609 335.229 26.8603 335.205 26.8337C335.181 26.8075 335.185 26.8005 335.205 26.8467L342.121 23.9463ZM333.91 19.1489C332.1 19.1489 330.269 19.4664 328.652 20.3731C326.959 21.322 325.757 22.7755 325.085 24.5528L332.1 27.207C332.15 27.0746 332.193 27.0183 332.209 26.9992C332.224 26.9819 332.251 26.9537 332.319 26.9152C332.475 26.8282 332.926 26.6489 333.91 26.6489V19.1489ZM325.085 24.5528C324.518 26.0516 324.204 28.0512 324.011 30.2661C323.81 32.5642 323.714 35.4089 323.714 38.7705H331.214C331.214 35.5257 331.307 32.9187 331.482 30.9199C331.664 28.8379 331.915 27.6955 332.1 27.207L325.085 24.5528ZM323.714 38.7705V99.3564H331.214V38.7705H323.714ZM323.714 99.3564C323.714 102.587 323.81 105.328 324.012 107.551C324.206 109.693 324.522 111.645 325.097 113.123L332.087 110.404C331.91 109.949 331.662 108.866 331.481 106.872C331.307 104.959 331.214 102.464 331.214 99.3564H323.714ZM325.097 113.123C325.763 114.835 326.922 116.256 328.565 117.195C330.142 118.096 331.919 118.414 333.668 118.414V110.914C332.785 110.914 332.401 110.749 332.286 110.683C332.234 110.654 332.214 110.633 332.2 110.616C332.184 110.597 332.14 110.539 332.087 110.404L325.097 113.123ZM333.668 118.414C335.388 118.414 337.14 118.087 338.696 117.168C340.306 116.218 341.426 114.798 342.078 113.123L335.087 110.404C335.029 110.555 334.979 110.623 334.958 110.648C334.941 110.669 334.922 110.687 334.884 110.709C334.801 110.758 334.473 110.914 333.668 110.914V118.414ZM342.044 113.206C342.685 111.668 343.019 109.552 343.224 107.241C343.439 104.818 343.541 101.776 343.541 98.1479H336.041C336.041 101.663 335.941 104.462 335.754 106.578C335.556 108.806 335.286 109.926 335.121 110.321L342.044 113.206ZM343.541 98.1479V81.793H336.041V98.1479H343.541ZM339.791 85.543H373.709V78.043H339.791V85.543ZM369.959 81.793V86.8687H377.459V81.793H369.959ZM369.959 86.8687C369.959 100.325 368.976 109.335 367.262 114.334L374.356 116.767C376.509 110.487 377.459 100.375 377.459 86.8687H369.959ZM367.252 114.364C365.715 118.974 362.185 123.3 356.122 127.227L360.198 133.522C367.24 128.962 372.144 123.405 374.367 116.736L367.252 114.364ZM356.11 127.235C350.349 130.996 343.073 132.989 334.071 132.989V140.489C344.19 140.489 352.974 138.239 360.21 133.515L356.11 127.235ZM334.071 132.989C324.561 132.989 317.052 131.264 311.326 128.067L307.67 134.616C314.834 138.616 323.707 140.489 334.071 140.489V132.989ZM311.326 128.067C305.607 124.874 302.017 120.609 300.249 115.26L293.127 117.613C295.549 124.94 300.499 130.612 307.67 134.616L311.326 128.067ZM300.251 115.269C298.346 109.455 297.296 100.35 297.296 87.6743H289.796C289.796 100.565 290.84 110.635 293.124 117.604L300.251 115.269ZM297.296 87.6743V49.5664H289.796V87.6743H297.296ZM297.296 49.5664C297.296 40.2054 297.619 33.3792 298.228 28.9704L290.798 27.9456C290.117 32.8825 289.796 40.1286 289.796 49.5664H297.296ZM298.228 28.9647C298.779 24.9284 300.413 20.9643 303.264 17.0502L297.202 12.6344C293.715 17.4214 291.536 22.5345 290.797 27.9513L298.228 28.9647ZM303.246 17.0744C306.029 13.3182 309.907 10.29 315.031 8.04519L312.022 1.17551C305.866 3.87208 300.883 7.66521 297.22 12.6102L303.246 17.0744ZM315.046 8.03848C320.182 5.76127 326.175 4.57373 333.104 4.57373V-2.92627C325.316 -2.92627 318.257 -1.5894 312.006 1.18223L315.046 8.03848ZM333.104 4.57373C342.63 4.57373 350.159 6.41895 355.92 9.84714L359.755 3.40188C352.519 -0.9043 343.559 -2.92627 333.104 -2.92627V4.57373ZM355.92 9.84714C361.844 13.3719 365.424 17.5767 367.111 22.3711L374.185 19.8818C371.79 13.0746 366.83 7.61151 359.755 3.40188L355.92 9.84714ZM367.114 22.3814C368.931 27.4972 369.959 35.9317 369.959 48.0356H377.459C377.459 35.7548 376.447 26.2499 374.182 19.8715L367.114 22.3814ZM369.959 48.0356V60.4429H377.459V48.0356H369.959ZM385.875 3.56299V-0.187012H382.125V3.56299H385.875ZM442.433 3.56299H446.183V-0.187012H442.433V3.56299ZM442.433 29.6665V33.4165H446.183V29.6665H442.433ZM419.793 29.6665V25.9165H416.043V29.6665H419.793ZM419.793 54.4004H416.043V58.1504H419.793V54.4004ZM440.982 54.4004H444.732V50.6504H440.982V54.4004ZM440.982 79.2148V82.9648H444.732V79.2148H440.982ZM419.793 79.2148V75.4648H416.043V79.2148H419.793ZM419.793 107.896H416.043V111.646H419.793V107.896ZM444.688 107.896H448.438V104.146H444.688V107.896ZM444.688 134V137.75H448.438V134H444.688ZM385.875 134H382.125V137.75H385.875V134ZM385.875 7.31299H442.433V-0.187012H385.875V7.31299ZM438.683 3.56299V29.6665H446.183V3.56299H438.683ZM442.433 25.9165H419.793V33.4165H442.433V25.9165ZM416.043 29.6665V54.4004H423.543V29.6665H416.043ZM419.793 58.1504H440.982V50.6504H419.793V58.1504ZM437.232 54.4004V79.2148H444.732V54.4004H437.232ZM440.982 75.4648H419.793V82.9648H440.982V75.4648ZM416.043 79.2148V107.896H423.543V79.2148H416.043ZM419.793 111.646H444.688V104.146H419.793V111.646ZM440.938 107.896V134H448.438V107.896H440.938ZM444.688 130.25H385.875V137.75H444.688V130.25ZM389.625 134V3.56299H382.125V134H389.625ZM526.383 43.0405V46.7905H530.133V43.0405H526.383ZM494.881 43.0405H491.131V46.7905H494.881V43.0405ZM484.972 25.3965L481.821 23.3635L481.797 23.3999L481.774 23.4369L484.972 25.3965ZM485.213 42.7988L488.551 41.0893L488.535 41.0574L488.518 41.0258L485.213 42.7988ZM494.801 50.7749L496.717 47.5512L496.711 47.5477L494.801 50.7749ZM525.899 121.19L522.545 119.513L522.537 119.529L522.529 119.546L525.899 121.19ZM513.331 132.308L514.938 135.697L514.95 135.691L514.961 135.685L513.331 132.308ZM468.294 131.583L466.518 134.886L466.53 134.892L468.294 131.583ZM452.745 87.2715V83.5215H448.995V87.2715H452.745ZM484.247 87.2715H487.997V83.5215H484.247V87.2715ZM485.536 112.569L482.342 114.535L482.369 114.578L482.397 114.622L485.536 112.569ZM495.284 112.005L492.12 109.992L492.098 110.027L492.077 110.062L495.284 112.005ZM493.834 89.0439L496.64 86.5565L496.625 86.5389L496.609 86.5214L493.834 89.0439ZM477.962 77.2007L475.891 80.327L475.898 80.3316L475.905 80.3362L477.962 77.2007ZM454.356 54.5615L450.872 55.947L450.879 55.965L450.886 55.983L454.356 54.5615ZM455.484 15.5674L452.21 13.7398L452.202 13.7543L452.194 13.769L455.484 15.5674ZM467.892 4.77148L469.439 8.18756L469.452 8.18153L469.465 8.17539L467.892 4.77148ZM510.995 5.09375L509.425 8.49948L509.436 8.5046L510.995 5.09375ZM523.321 15.8896L519.91 17.4478L519.922 17.4733L519.934 17.4986L523.321 15.8896ZM526.383 39.2905H494.881V46.7905H526.383V39.2905ZM498.631 43.0405V33.3726H491.131V43.0405H498.631ZM498.631 33.3726C498.631 31.0267 498.528 28.9893 498.293 27.313C498.075 25.7586 497.687 24.0426 496.814 22.7034L490.532 26.8005C490.464 26.6967 490.681 27.0351 490.866 28.3542C491.033 29.5515 491.131 31.2067 491.131 33.3726H498.631ZM496.814 22.7034C495.125 20.1145 492.398 19.1489 489.645 19.1489V26.6489C490.186 26.6489 490.429 26.739 490.494 26.769C490.524 26.7828 490.527 26.7882 490.519 26.7809C490.51 26.7736 490.515 26.7748 490.532 26.8005L496.814 22.7034ZM489.645 19.1489C486.376 19.1489 483.61 20.5898 481.821 23.3635L488.123 27.4295C488.482 26.8731 488.831 26.6489 489.645 26.6489V19.1489ZM481.774 23.4369C480.215 25.981 479.691 29.3385 479.691 32.9697H487.191C487.191 29.8334 487.687 28.1421 488.169 27.3561L481.774 23.4369ZM479.691 32.9697C479.691 37.5424 480.292 41.5582 481.909 44.5719L488.518 41.0258C487.772 39.6352 487.191 37.0982 487.191 32.9697H479.691ZM481.876 44.5084C482.776 46.2655 484.3 47.8649 486.058 49.3273C487.862 50.8284 490.159 52.3855 492.891 54.0021L496.711 47.5477C494.179 46.0491 492.246 44.7192 490.854 43.5616C489.417 42.3653 488.779 41.5343 488.551 41.0893L481.876 44.5084ZM492.885 53.9986C500.354 58.4373 506.364 62.4329 510.955 65.9865C515.589 69.5733 518.589 72.5669 520.224 74.9635L526.419 70.7367C524.133 67.3862 520.419 63.8271 515.546 60.0555C510.63 56.2507 504.341 52.0822 496.717 47.5512L492.885 53.9986ZM520.224 74.9635C523.491 79.7533 525.453 88.0718 525.453 100.646H532.953C532.953 87.6528 530.993 77.441 526.419 70.7367L520.224 74.9635ZM525.453 100.646C525.453 109.784 524.346 115.911 522.545 119.513L529.254 122.867C531.857 117.661 532.953 110.091 532.953 100.646H525.453ZM522.529 119.546C520.875 122.937 517.479 126.142 511.701 128.931L514.961 135.685C521.644 132.459 526.627 128.252 529.27 122.834L522.529 119.546ZM511.724 128.92C506.086 131.593 499.403 132.989 491.578 132.989V140.489C500.296 140.489 508.115 138.932 514.938 135.697L511.724 128.92ZM491.578 132.989C482.97 132.989 475.845 131.36 470.059 128.274L466.53 134.892C473.634 138.681 482.032 140.489 491.578 140.489V132.989ZM470.071 128.28C464.251 125.15 460.827 121.388 459.239 117.138L452.213 119.764C454.6 126.149 459.555 131.141 466.518 134.886L470.071 128.28ZM459.239 117.138C457.482 112.438 456.495 105.414 456.495 95.8115H448.995C448.995 105.76 449.995 113.828 452.213 119.764L459.239 117.138ZM456.495 95.8115V87.2715H448.995V95.8115H456.495ZM452.745 91.0215H484.247V83.5215H452.745V91.0215ZM480.497 87.2715V103.143H487.997V87.2715H480.497ZM480.497 103.143C480.497 105.676 480.607 107.87 480.853 109.674C481.085 111.368 481.488 113.147 482.342 114.535L488.729 110.604C488.755 110.645 488.683 110.538 488.579 110.17C488.479 109.818 488.375 109.324 488.284 108.657C488.101 107.319 487.997 105.497 487.997 103.143H480.497ZM482.397 114.622C484.235 117.433 487.261 118.414 490.289 118.414V110.914C489.531 110.914 489.116 110.795 488.921 110.709C488.767 110.641 488.718 110.584 488.674 110.517L482.397 114.622ZM490.289 118.414C493.716 118.414 496.668 116.957 498.491 113.949L492.077 110.062C491.752 110.598 491.373 110.914 490.289 110.914V118.414ZM498.448 114.019C500.136 111.367 500.726 107.892 500.726 104.11H493.226C493.226 107.311 492.689 109.099 492.12 109.992L498.448 114.019ZM500.726 104.11C500.726 100.126 500.457 96.6711 499.862 93.8173C499.279 91.0245 498.312 88.4423 496.64 86.5565L491.028 91.5313C491.451 92.0088 492.055 93.1193 492.52 95.3485C492.972 97.5167 493.226 100.413 493.226 104.11H500.726ZM496.609 86.5214C494.083 83.7429 488.368 79.542 480.019 74.0652L475.905 80.3362C484.422 85.9238 489.288 89.6184 491.059 91.5665L496.609 86.5214ZM480.033 74.0744C471.577 68.4729 466.234 64.5703 463.746 62.2776L458.663 67.7927C461.654 70.5488 467.482 74.7566 475.891 80.327L480.033 74.0744ZM463.746 62.2776C461.51 60.2175 459.503 57.2333 457.827 53.14L450.886 55.983C452.862 60.8057 455.42 64.804 458.663 67.7927L463.746 62.2776ZM457.841 53.176C456.303 49.3085 455.448 44.1289 455.448 37.4814H447.948C447.948 44.6914 448.865 50.8985 450.872 55.947L457.841 53.176ZM455.448 37.4814C455.448 27.6496 456.717 21.1314 458.775 17.3658L452.194 13.769C449.203 19.2416 447.948 27.3328 447.948 37.4814H455.448ZM458.759 17.395C460.879 13.5973 464.339 10.4966 469.439 8.18756L466.345 1.35541C460.057 4.20257 455.246 8.29923 452.21 13.7398L458.759 17.395ZM469.465 8.17539C474.546 5.82672 480.854 4.57373 488.517 4.57373V-2.92627C480.065 -2.92627 472.624 -1.54742 466.318 1.36758L469.465 8.17539ZM488.517 4.57373C496.937 4.57373 503.863 5.93614 509.425 8.49946L512.564 1.68804C505.773 -1.442 497.714 -2.92627 488.517 -2.92627V4.57373ZM509.436 8.5046C515.196 11.1361 518.431 14.2098 519.91 17.4478L526.732 14.3315C524.237 8.86835 519.254 4.74474 512.553 1.6829L509.436 8.5046ZM519.934 17.4986C521.587 20.9784 522.633 27.5685 522.633 37.8843H530.133C530.133 27.4676 529.138 19.3947 526.709 14.2807L519.934 17.4986ZM522.633 37.8843V43.0405H530.133V37.8843H522.633Z" fill="#EA7724" mask="url(#path-1-inside-1_48_8)"/>
</svg>
