<svg width="746" height="137" viewBox="0 0 746 137" fill="none" xmlns="http://www.w3.org/2000/svg">
<path d="M34.686 3.56299V107.896H55.311V134H0.767578V3.56299H34.686ZM97.5278 3.56299V134H63.6094V3.56299H97.5278ZM111.144 3.56299H168.587V29.6665H145.062V54.4004H166.009V79.2148H145.062V134H111.144V3.56299ZM176.886 3.56299H233.443V29.6665H210.804V54.4004H231.993V79.2148H210.804V107.896H235.699V134H176.886V3.56299ZM346.559 43.0405H315.057V33.3726C315.057 28.8608 314.654 25.9873 313.849 24.752C313.043 23.5166 311.7 22.8989 309.82 22.8989C307.779 22.8989 306.222 23.7314 305.147 25.3965C304.127 27.0615 303.617 29.5859 303.617 32.9697C303.617 37.3203 304.208 40.5967 305.389 42.7988C306.517 45.001 309.713 47.6597 314.977 50.7749C330.069 59.7446 339.576 67.103 343.497 72.8501C347.418 78.5972 349.378 87.8623 349.378 100.646C349.378 109.938 348.277 116.786 346.075 121.19C343.927 125.594 339.737 129.3 333.507 132.308C327.276 135.262 320.025 136.739 311.754 136.739C302.677 136.739 294.916 135.021 288.47 131.583C282.079 128.146 277.889 123.768 275.902 118.451C273.915 113.133 272.921 105.587 272.921 95.8115V87.2715H304.422V103.143C304.422 108.031 304.852 111.173 305.711 112.569C306.625 113.966 308.209 114.664 310.465 114.664C312.721 114.664 314.386 113.778 315.46 112.005C316.588 110.233 317.152 107.601 317.152 104.11C317.152 96.4292 316.104 91.4072 314.01 89.0439C311.861 86.6807 306.571 82.7329 298.138 77.2007C289.706 71.6147 284.12 67.5596 281.38 65.0352C278.641 62.5107 276.358 59.0195 274.532 54.5615C272.76 50.1035 271.874 44.4102 271.874 37.4814C271.874 27.4912 273.136 20.1865 275.66 15.5674C278.238 10.9482 282.374 7.34961 288.067 4.77148C293.761 2.13965 300.636 0.82373 308.692 0.82373C317.501 0.82373 324.994 2.24707 331.17 5.09375C337.401 7.94043 341.51 11.5391 343.497 15.8896C345.538 20.1865 346.559 27.5181 346.559 37.8843V43.0405ZM418.666 3.56299L438.082 134H403.358L401.666 110.555H389.5L387.486 134H352.359L369.601 3.56299H418.666ZM400.699 87.4326C398.98 72.6621 397.262 54.4272 395.543 32.728C392.105 57.6499 389.957 75.8848 389.098 87.4326H400.699ZM524.449 3.56299L507.208 134H455.726L436.148 3.56299H471.92C476.056 39.4956 479.01 69.8691 480.782 94.6836C482.555 69.6006 484.408 47.3105 486.341 27.8135L488.678 3.56299H524.449ZM564.168 3.56299V134H530.25V3.56299H564.168ZM653.517 3.56299V134H623.788L606.144 74.7031V134H577.784V3.56299H606.144L625.157 62.2959V3.56299H653.517ZM745.04 51.5806H711.122V39.7373C711.122 32.2715 710.799 27.5986 710.155 25.7188C709.51 23.8389 707.979 22.8989 705.562 22.8989C703.468 22.8989 702.044 23.7046 701.292 25.3159C700.541 26.9272 700.165 31.063 700.165 37.7231V100.323C700.165 106.178 700.541 110.045 701.292 111.925C702.044 113.751 703.548 114.664 705.804 114.664C708.275 114.664 709.94 113.617 710.799 111.522C711.712 109.427 712.169 105.345 712.169 99.2759V83.8071H705.321V63.9878H745.04V134H723.69L720.548 124.654C718.238 128.683 715.311 131.717 711.766 133.758C708.275 135.746 704.139 136.739 699.359 136.739C693.666 136.739 688.321 135.37 683.326 132.63C678.385 129.837 674.625 126.4 672.047 122.318C669.469 118.236 667.857 113.966 667.213 109.508C666.568 104.996 666.246 98.2554 666.246 89.2856V50.5332C666.246 38.0723 666.917 29.022 668.26 23.3823C669.603 17.7427 673.443 12.5864 679.781 7.91357C686.173 3.18701 694.417 0.82373 704.515 0.82373C714.452 0.82373 722.696 2.86475 729.249 6.94678C735.802 11.0288 740.072 15.8896 742.059 21.5293C744.046 27.1152 745.04 35.2524 745.04 45.9409V51.5806Z" fill="#EA7724"/>
</svg>
