<svg width="283" height="74" viewBox="0 0 283 74" fill="none" xmlns="http://www.w3.org/2000/svg">
<mask id="path-1-inside-1_64_28" fill="white">
<path d="M0.609375 2.43359H14.1445C22.8815 2.43359 28.7826 2.83464 31.8477 3.63672C34.9414 4.4388 37.2904 5.75651 38.8945 7.58984C40.4987 9.42318 41.5013 11.4714 41.9023 13.7344C42.3034 15.9688 42.5039 20.3802 42.5039 26.9688V51.332C42.5039 57.5768 42.2031 61.7591 41.6016 63.8789C41.0286 65.9701 40.0117 67.6172 38.5508 68.8203C37.0898 69.9948 35.2852 70.8255 33.1367 71.3125C30.9883 71.7708 27.7513 72 23.4258 72H0.609375V2.43359ZM18.6992 14.3359V60.0977C21.306 60.0977 22.9102 59.582 23.5117 58.5508C24.1133 57.4909 24.4141 54.6406 24.4141 50V22.9727C24.4141 19.8216 24.3138 17.8021 24.1133 16.9141C23.9128 16.026 23.4544 15.3815 22.7383 14.9805C22.0221 14.5508 20.6758 14.3359 18.6992 14.3359ZM49.25 2.43359H79.4141V16.3555H67.3398V29.5469H78.6406V42.7812H67.3398V58.0781H80.6172V72H49.25V2.43359ZM128.828 2.43359L119.633 72H92.1758L81.7344 2.43359H100.812C103.018 21.5977 104.594 37.7969 105.539 51.0312C106.484 37.6536 107.473 25.7656 108.504 15.3672L109.75 2.43359H128.828ZM150.012 2.43359V72H131.922V2.43359H150.012ZM199.512 32.7695H181.422V20.6523C181.422 17.1289 181.221 14.9375 180.82 14.0781C180.448 13.1901 179.603 12.7461 178.285 12.7461C176.796 12.7461 175.85 13.276 175.449 14.3359C175.048 15.3958 174.848 17.6875 174.848 21.2109V53.5234C174.848 56.9036 175.048 59.1094 175.449 60.1406C175.85 61.1719 176.753 61.6875 178.156 61.6875C179.503 61.6875 180.376 61.1719 180.777 60.1406C181.207 59.1094 181.422 56.6888 181.422 52.8789V44.1562H199.512V46.8633C199.512 54.0534 198.996 59.1523 197.965 62.1602C196.962 65.168 194.714 67.8034 191.219 70.0664C187.753 72.3294 183.47 73.4609 178.371 73.4609C173.072 73.4609 168.703 72.5013 165.266 70.582C161.828 68.6628 159.551 66.013 158.434 62.6328C157.316 59.224 156.758 54.1107 156.758 47.293V26.9688C156.758 21.9557 156.93 18.2031 157.273 15.7109C157.617 13.1901 158.634 10.7695 160.324 8.44922C162.043 6.12891 164.406 4.3099 167.414 2.99219C170.451 1.64583 173.931 0.972656 177.855 0.972656C183.184 0.972656 187.581 2.00391 191.047 4.06641C194.513 6.12891 196.79 8.70703 197.879 11.8008C198.967 14.8659 199.512 19.6497 199.512 26.1523V32.7695ZM206 2.43359H236.164V16.3555H224.09V29.5469H235.391V42.7812H224.09V58.0781H237.367V72H206V2.43359ZM280.938 23.4883H264.137V18.332C264.137 15.9258 263.922 14.3932 263.492 13.7344C263.062 13.0755 262.346 12.7461 261.344 12.7461C260.255 12.7461 259.424 13.1901 258.852 14.0781C258.307 14.9661 258.035 16.3125 258.035 18.1172C258.035 20.4375 258.35 22.1849 258.98 23.3594C259.582 24.5339 261.286 25.9518 264.094 27.6133C272.143 32.3971 277.214 36.3216 279.305 39.3867C281.396 42.4518 282.441 47.3932 282.441 54.2109C282.441 59.1667 281.854 62.819 280.68 65.168C279.534 67.5169 277.299 69.4935 273.977 71.0977C270.654 72.6732 266.786 73.4609 262.375 73.4609C257.534 73.4609 253.395 72.5443 249.957 70.7109C246.548 68.8776 244.314 66.543 243.254 63.707C242.194 60.8711 241.664 56.8464 241.664 51.6328V47.0781H258.465V55.543C258.465 58.1497 258.694 59.8255 259.152 60.5703C259.639 61.3151 260.484 61.6875 261.688 61.6875C262.891 61.6875 263.779 61.2148 264.352 60.2695C264.953 59.3242 265.254 57.9206 265.254 56.0586C265.254 51.9622 264.695 49.2839 263.578 48.0234C262.432 46.763 259.611 44.6576 255.113 41.707C250.616 38.7279 247.637 36.5651 246.176 35.2188C244.715 33.8724 243.497 32.0104 242.523 29.6328C241.578 27.2552 241.105 24.2188 241.105 20.5234C241.105 15.1953 241.779 11.2995 243.125 8.83594C244.5 6.3724 246.706 4.45312 249.742 3.07812C252.779 1.67448 256.445 0.972656 260.742 0.972656C265.44 0.972656 269.436 1.73177 272.73 3.25C276.053 4.76823 278.245 6.6875 279.305 9.00781C280.393 11.2995 280.938 15.2096 280.938 20.7383V23.4883Z"/>
</mask>
<path d="M0.609375 2.43359V0.433594H-1.39062V2.43359H0.609375ZM31.8477 3.63672L31.3413 5.57157L31.3457 5.57271L31.8477 3.63672ZM38.8945 7.58984L37.3894 8.90685L38.8945 7.58984ZM41.9023 13.7344L39.933 14.0834L39.9338 14.0877L41.9023 13.7344ZM41.6016 63.8789L39.6775 63.3329L39.6751 63.3417L39.6726 63.3504L41.6016 63.8789ZM38.5508 68.8203L39.8039 70.3791L39.8131 70.3717L39.8222 70.3642L38.5508 68.8203ZM33.1367 71.3125L33.554 73.2685L33.5664 73.2658L33.5788 73.263L33.1367 71.3125ZM0.609375 72H-1.39062V74H0.609375V72ZM18.6992 14.3359V12.3359H16.6992V14.3359H18.6992ZM18.6992 60.0977H16.6992V62.0977H18.6992V60.0977ZM23.5117 58.5508L25.2393 59.5585L25.2452 59.5483L25.2511 59.538L23.5117 58.5508ZM22.7383 14.9805L21.7093 16.6955L21.735 16.7109L21.7611 16.7255L22.7383 14.9805ZM0.609375 4.43359H14.1445V0.433594H0.609375V4.43359ZM14.1445 4.43359C22.9099 4.43359 28.5613 4.84408 31.3413 5.57157L32.354 1.70187C29.0038 0.825193 22.8531 0.433594 14.1445 0.433594V4.43359ZM31.3457 5.57271C34.1704 6.30503 36.1211 7.45738 37.3894 8.90685L40.3997 6.27283C38.4596 4.05564 35.7124 2.57258 32.3496 1.70072L31.3457 5.57271ZM37.3894 8.90685C38.7685 10.483 39.5995 12.2011 39.933 14.0834L43.8717 13.3854C43.4031 10.7416 42.2289 8.36337 40.3997 6.27283L37.3894 8.90685ZM39.9338 14.0877C40.2984 16.119 40.5039 20.3543 40.5039 26.9688H44.5039C44.5039 20.4061 44.3084 15.8185 43.8709 13.381L39.9338 14.0877ZM40.5039 26.9688V51.332H44.5039V26.9688H40.5039ZM40.5039 51.332C40.5039 57.6137 40.1915 61.5217 39.6775 63.3329L43.5256 64.4249C44.2147 61.9966 44.5039 57.5399 44.5039 51.332H40.5039ZM39.6726 63.3504C39.1924 65.1034 38.3767 66.3728 37.2794 67.2765L39.8222 70.3642C41.6468 68.8616 42.8649 66.8367 43.5305 64.4074L39.6726 63.3504ZM37.2977 67.2616C36.1119 68.2149 34.5981 68.9305 32.6946 69.362L33.5788 73.263C35.9722 72.7205 38.0678 71.7747 39.8039 70.3791L37.2977 67.2616ZM32.7194 69.3565C30.7837 69.7695 27.7184 70 23.4258 70V74C27.7842 74 31.1929 73.7722 33.554 73.2685L32.7194 69.3565ZM23.4258 70H0.609375V74H23.4258V70ZM2.60938 72V2.43359H-1.39062V72H2.60938ZM16.6992 14.3359V60.0977H20.6992V14.3359H16.6992ZM18.6992 62.0977C20.1098 62.0977 21.3924 61.9612 22.4694 61.615C23.5488 61.2681 24.6041 60.6474 25.2393 59.5585L21.7842 57.543C21.8178 57.4854 21.7702 57.6382 21.2454 57.8069C20.7183 57.9763 19.8954 58.0977 18.6992 58.0977V62.0977ZM25.2511 59.538C25.7776 58.6103 26.027 57.254 26.1774 55.8281C26.3383 54.3041 26.4141 52.3533 26.4141 50H22.4141C22.4141 52.2873 22.3395 54.082 22.1995 55.4083C22.1296 56.0712 22.0464 56.5862 21.9577 56.9704C21.9137 57.161 21.8716 57.3051 21.835 57.4101C21.8169 57.4618 21.8016 57.5 21.7899 57.5266C21.7781 57.5535 21.7717 57.5647 21.7723 57.5636L25.2511 59.538ZM26.4141 50V22.9727H22.4141V50H26.4141ZM26.4141 22.9727C26.4141 19.8836 26.3236 17.6225 26.0642 16.4735L22.1624 17.3546C22.304 17.9816 22.4141 19.7597 22.4141 22.9727H26.4141ZM26.0642 16.4735C25.7539 15.0996 24.9837 13.9456 23.7155 13.2355L21.7611 16.7255C21.9252 16.8174 22.0716 16.9524 22.1624 17.3546L26.0642 16.4735ZM23.7673 13.2655C23.0949 12.8621 22.2926 12.6475 21.5066 12.5221C20.6942 12.3924 19.7505 12.3359 18.6992 12.3359V16.3359C19.6245 16.3359 20.3422 16.3869 20.8762 16.4721C21.4365 16.5615 21.6655 16.6692 21.7093 16.6955L23.7673 13.2655ZM49.25 2.43359V0.433594H47.25V2.43359H49.25ZM79.4141 2.43359H81.4141V0.433594H79.4141V2.43359ZM79.4141 16.3555V18.3555H81.4141V16.3555H79.4141ZM67.3398 16.3555V14.3555H65.3398V16.3555H67.3398ZM67.3398 29.5469H65.3398V31.5469H67.3398V29.5469ZM78.6406 29.5469H80.6406V27.5469H78.6406V29.5469ZM78.6406 42.7812V44.7812H80.6406V42.7812H78.6406ZM67.3398 42.7812V40.7812H65.3398V42.7812H67.3398ZM67.3398 58.0781H65.3398V60.0781H67.3398V58.0781ZM80.6172 58.0781H82.6172V56.0781H80.6172V58.0781ZM80.6172 72V74H82.6172V72H80.6172ZM49.25 72H47.25V74H49.25V72ZM49.25 4.43359H79.4141V0.433594H49.25V4.43359ZM77.4141 2.43359V16.3555H81.4141V2.43359H77.4141ZM79.4141 14.3555H67.3398V18.3555H79.4141V14.3555ZM65.3398 16.3555V29.5469H69.3398V16.3555H65.3398ZM67.3398 31.5469H78.6406V27.5469H67.3398V31.5469ZM76.6406 29.5469V42.7812H80.6406V29.5469H76.6406ZM78.6406 40.7812H67.3398V44.7812H78.6406V40.7812ZM65.3398 42.7812V58.0781H69.3398V42.7812H65.3398ZM67.3398 60.0781H80.6172V56.0781H67.3398V60.0781ZM78.6172 58.0781V72H82.6172V58.0781H78.6172ZM80.6172 70H49.25V74H80.6172V70ZM51.25 72V2.43359H47.25V72H51.25ZM128.828 2.43359L130.811 2.69567L131.11 0.433594H128.828V2.43359ZM119.633 72V74H121.386L121.616 72.2621L119.633 72ZM92.1758 72L90.1979 72.2969L90.4536 74H92.1758V72ZM81.7344 2.43359V0.433594H79.4118L79.7565 2.73045L81.7344 2.43359ZM100.812 2.43359L102.799 2.20491L102.596 0.433594H100.812V2.43359ZM105.539 51.0312L103.544 51.1737L107.534 51.1722L105.539 51.0312ZM108.504 15.3672L110.494 15.5646L110.495 15.559L108.504 15.3672ZM109.75 2.43359V0.433594H107.933L107.759 2.24179L109.75 2.43359ZM126.845 2.17151L117.65 71.7379L121.616 72.2621L130.811 2.69567L126.845 2.17151ZM119.633 70H92.1758V74H119.633V70ZM94.1536 71.7031L83.7122 2.13673L79.7565 2.73045L90.1979 72.2969L94.1536 71.7031ZM81.7344 4.43359H100.812V0.433594H81.7344V4.43359ZM98.8256 2.66228C101.029 21.8093 102.602 37.9778 103.544 51.1737L107.534 50.8888C106.586 37.6159 105.007 21.386 102.799 2.20491L98.8256 2.66228ZM107.534 51.1722C108.478 37.8085 109.465 25.9399 110.494 15.5646L106.514 15.1698C105.48 25.5914 104.49 37.4988 103.544 50.8903L107.534 51.1722ZM110.495 15.559L111.741 2.6254L107.759 2.24179L106.513 15.1754L110.495 15.559ZM109.75 4.43359H128.828V0.433594H109.75V4.43359ZM150.012 2.43359H152.012V0.433594H150.012V2.43359ZM150.012 72V74H152.012V72H150.012ZM131.922 72H129.922V74H131.922V72ZM131.922 2.43359V0.433594H129.922V2.43359H131.922ZM148.012 2.43359V72H152.012V2.43359H148.012ZM150.012 70H131.922V74H150.012V70ZM133.922 72V2.43359H129.922V72H133.922ZM131.922 4.43359H150.012V0.433594H131.922V4.43359ZM199.512 32.7695V34.7695H201.512V32.7695H199.512ZM181.422 32.7695H179.422V34.7695H181.422V32.7695ZM180.82 14.0781L178.976 14.8516L178.991 14.8881L179.008 14.9239L180.82 14.0781ZM175.449 14.3359L173.579 13.6282L175.449 14.3359ZM175.449 60.1406L173.585 60.8655L175.449 60.1406ZM180.777 60.1406L178.931 59.3714L178.922 59.3935L178.913 59.4157L180.777 60.1406ZM181.422 44.1562V42.1562H179.422V44.1562H181.422ZM199.512 44.1562H201.512V42.1562H199.512V44.1562ZM197.965 62.1602L196.073 61.5115L196.07 61.5196L196.067 61.5277L197.965 62.1602ZM191.219 70.0664L190.132 68.3876L190.125 68.3917L191.219 70.0664ZM158.434 62.6328L156.533 63.2557L156.535 63.2604L158.434 62.6328ZM157.273 15.7109L159.255 15.9842L159.255 15.9812L157.273 15.7109ZM160.324 8.44922L158.717 7.25876L158.712 7.26521L158.708 7.27169L160.324 8.44922ZM167.414 2.99219L168.217 4.82412L168.225 4.82052L167.414 2.99219ZM197.879 11.8008L195.992 12.4646L195.994 12.4701L197.879 11.8008ZM199.512 30.7695H181.422V34.7695H199.512V30.7695ZM183.422 32.7695V20.6523H179.422V32.7695H183.422ZM183.422 20.6523C183.422 18.8612 183.371 17.3651 183.263 16.184C183.162 15.082 182.994 14.0072 182.633 13.2324L179.008 14.9239C179.005 14.9175 179.019 14.9469 179.043 15.0275C179.066 15.1056 179.093 15.2144 179.121 15.3593C179.179 15.6517 179.234 16.0436 179.28 16.5485C179.372 17.5588 179.422 18.92 179.422 20.6523H183.422ZM182.665 13.3047C182.301 12.4363 181.675 11.7488 180.837 11.3086C180.04 10.8896 179.151 10.7461 178.285 10.7461V14.7461C178.737 14.7461 178.929 14.8246 178.977 14.8496C178.995 14.8592 178.989 14.8588 178.976 14.8447C178.963 14.8307 178.966 14.8269 178.976 14.8516L182.665 13.3047ZM178.285 10.7461C177.32 10.7461 176.344 10.9154 175.481 11.399C174.578 11.905 173.937 12.6803 173.579 13.6282L177.32 15.0437C177.347 14.9731 177.37 14.9431 177.378 14.9329C177.386 14.9237 177.4 14.9086 177.437 14.8881C177.52 14.8417 177.76 14.7461 178.285 14.7461V10.7461ZM173.579 13.6282C173.276 14.4275 173.109 15.494 173.006 16.6753C172.898 17.9009 172.848 19.4181 172.848 21.2109H176.848C176.848 19.4804 176.897 18.09 176.99 17.0239C177.088 15.9136 177.221 15.3043 177.32 15.0437L173.579 13.6282ZM172.848 21.2109V53.5234H176.848V21.2109H172.848ZM172.848 53.5234C172.848 55.2461 172.898 56.7084 173.006 57.894C173.11 59.0361 173.279 60.0772 173.585 60.8655L177.313 59.4157C177.219 59.1728 177.087 58.5954 176.99 57.5318C176.897 56.5117 176.848 55.1809 176.848 53.5234H172.848ZM173.585 60.8655C173.94 61.7785 174.559 62.5368 175.434 63.0373C176.276 63.5179 177.224 63.6875 178.156 63.6875V59.6875C177.685 59.6875 177.48 59.5993 177.419 59.5643C177.392 59.5487 177.381 59.5374 177.373 59.5287C177.365 59.5186 177.341 59.4877 177.313 59.4157L173.585 60.8655ZM178.156 63.6875C179.074 63.6875 180.008 63.5128 180.838 63.0232C181.697 62.5163 182.294 61.7589 182.641 60.8655L178.913 59.4157C178.882 59.4958 178.855 59.5324 178.844 59.5455C178.835 59.5569 178.825 59.5663 178.805 59.5784C178.761 59.6043 178.585 59.6875 178.156 59.6875V63.6875ZM182.624 60.9099C182.965 60.0896 183.144 58.961 183.253 57.7286C183.368 56.4363 183.422 54.8139 183.422 52.8789H179.422C179.422 54.7539 179.369 56.2466 179.269 57.3749C179.163 58.5631 179.019 59.1604 178.931 59.3714L182.624 60.9099ZM183.422 52.8789V44.1562H179.422V52.8789H183.422ZM181.422 46.1562H199.512V42.1562H181.422V46.1562ZM197.512 44.1562V46.8633H201.512V44.1562H197.512ZM197.512 46.8633C197.512 54.0402 196.987 58.8452 196.073 61.5115L199.857 62.8088C201.005 59.4595 201.512 54.0666 201.512 46.8633H197.512ZM196.067 61.5277C195.248 63.9864 193.366 66.2936 190.132 68.3876L192.306 71.7452C196.062 69.3132 198.677 66.3495 199.862 62.7926L196.067 61.5277ZM190.125 68.3917C187.053 70.3979 183.172 71.4609 178.371 71.4609V75.4609C183.768 75.4609 188.453 74.2609 192.312 71.7411L190.125 68.3917ZM178.371 71.4609C173.299 71.4609 169.295 70.5409 166.241 68.8358L164.291 72.3283C168.112 74.4617 172.844 75.4609 178.371 75.4609V71.4609ZM166.241 68.8358C163.19 67.1326 161.275 64.8582 160.333 62.0052L156.535 63.2604C157.826 67.1679 160.466 70.1929 164.291 72.3283L166.241 68.8358ZM160.334 62.0099C159.318 58.9095 158.758 54.0536 158.758 47.293H154.758C154.758 54.1678 155.315 59.5384 156.533 63.2557L160.334 62.0099ZM158.758 47.293V26.9688H154.758V47.293H158.758ZM158.758 26.9688C158.758 21.9762 158.93 18.3356 159.255 15.9842L155.292 15.4377C154.929 18.0707 154.758 21.9352 154.758 26.9688H158.758ZM159.255 15.9812C159.549 13.8285 160.42 11.7143 161.941 9.62675L158.708 7.27169C156.848 9.82476 155.686 12.5517 155.292 15.4407L159.255 15.9812ZM161.931 9.63967C163.415 7.63637 165.484 6.02135 168.217 4.8241L166.612 1.16027C163.329 2.59844 160.671 4.62144 158.717 7.25876L161.931 9.63967ZM168.225 4.82052C170.964 3.60601 174.16 2.97266 177.855 2.97266V-1.02734C173.702 -1.02734 169.937 -0.314344 166.603 1.16385L168.225 4.82052ZM177.855 2.97266C182.936 2.97266 186.951 3.95677 190.024 5.78514L192.07 2.34767C188.21 0.0510402 183.431 -1.02734 177.855 -1.02734V2.97266ZM190.024 5.78514C193.183 7.66501 195.093 9.9076 195.992 12.4646L199.766 11.137C198.488 7.50646 195.843 4.5928 192.07 2.34767L190.024 5.78514ZM195.994 12.4701C196.963 15.1985 197.512 19.6969 197.512 26.1523H201.512C201.512 19.6026 200.972 14.5333 199.764 11.1315L195.994 12.4701ZM197.512 26.1523V32.7695H201.512V26.1523H197.512ZM206 2.43359V0.433594H204V2.43359H206ZM236.164 2.43359H238.164V0.433594H236.164V2.43359ZM236.164 16.3555V18.3555H238.164V16.3555H236.164ZM224.09 16.3555V14.3555H222.09V16.3555H224.09ZM224.09 29.5469H222.09V31.5469H224.09V29.5469ZM235.391 29.5469H237.391V27.5469H235.391V29.5469ZM235.391 42.7812V44.7812H237.391V42.7812H235.391ZM224.09 42.7812V40.7812H222.09V42.7812H224.09ZM224.09 58.0781H222.09V60.0781H224.09V58.0781ZM237.367 58.0781H239.367V56.0781H237.367V58.0781ZM237.367 72V74H239.367V72H237.367ZM206 72H204V74H206V72ZM206 4.43359H236.164V0.433594H206V4.43359ZM234.164 2.43359V16.3555H238.164V2.43359H234.164ZM236.164 14.3555H224.09V18.3555H236.164V14.3555ZM222.09 16.3555V29.5469H226.09V16.3555H222.09ZM224.09 31.5469H235.391V27.5469H224.09V31.5469ZM233.391 29.5469V42.7812H237.391V29.5469H233.391ZM235.391 40.7812H224.09V44.7812H235.391V40.7812ZM222.09 42.7812V58.0781H226.09V42.7812H222.09ZM224.09 60.0781H237.367V56.0781H224.09V60.0781ZM235.367 58.0781V72H239.367V58.0781H235.367ZM237.367 70H206V74H237.367V70ZM208 72V2.43359H204V72H208ZM280.938 23.4883V25.4883H282.938V23.4883H280.938ZM264.137 23.4883H262.137V25.4883H264.137V23.4883ZM258.852 14.0781L257.171 12.9939L257.158 13.0133L257.146 13.033L258.852 14.0781ZM258.98 23.3594L260.761 22.4476L260.752 22.4306L260.743 22.4137L258.98 23.3594ZM264.094 27.6133L265.116 25.894L265.112 25.8921L264.094 27.6133ZM279.305 39.3867L277.653 40.5139L279.305 39.3867ZM280.68 65.168L278.891 64.2735L278.886 64.2823L278.882 64.2911L280.68 65.168ZM273.977 71.0977L274.833 72.9049L274.846 72.8988L273.977 71.0977ZM249.957 70.7109L249.01 72.4724L249.016 72.4756L249.957 70.7109ZM243.254 63.707L241.38 64.4072L243.254 63.707ZM241.664 47.0781V45.0781H239.664V47.0781H241.664ZM258.465 47.0781H260.465V45.0781H258.465V47.0781ZM259.152 60.5703L257.449 61.6185L257.463 61.6419L257.478 61.6648L259.152 60.5703ZM264.352 60.2695L262.664 59.1958L262.652 59.2142L262.641 59.2329L264.352 60.2695ZM263.578 48.0234L265.075 46.6968L265.066 46.6874L265.058 46.6781L263.578 48.0234ZM255.113 41.707L254.009 43.3744L254.016 43.3793L255.113 41.707ZM242.523 29.6328L240.665 30.3717L240.669 30.3814L240.673 30.3909L242.523 29.6328ZM243.125 8.83594L241.379 7.86121L241.374 7.86899L241.37 7.8768L243.125 8.83594ZM249.742 3.07812L250.567 4.90003L250.574 4.89682L250.581 4.89354L249.742 3.07812ZM272.73 3.25L271.893 5.06639L271.899 5.06912L272.73 3.25ZM279.305 9.00781L277.486 9.8388L277.492 9.85241L277.498 9.86593L279.305 9.00781ZM280.938 21.4883H264.137V25.4883H280.938V21.4883ZM266.137 23.4883V18.332H262.137V23.4883H266.137ZM266.137 18.332C266.137 17.0809 266.082 15.9943 265.956 15.1003C265.84 14.2713 265.633 13.356 265.167 12.6418L261.817 14.8269C261.781 14.7716 261.896 14.952 261.995 15.6556C262.084 16.2941 262.137 17.1769 262.137 18.332H266.137ZM265.167 12.6418C264.267 11.2611 262.812 10.7461 261.344 10.7461V14.7461C261.632 14.7461 261.762 14.7941 261.797 14.8101C261.813 14.8175 261.814 14.8204 261.81 14.8165C261.805 14.8126 261.808 14.8132 261.817 14.8269L265.167 12.6418ZM261.344 10.7461C259.6 10.7461 258.125 11.5146 257.171 12.9939L260.532 15.1624C260.724 14.8657 260.91 14.7461 261.344 14.7461V10.7461ZM257.146 13.033C256.315 14.3898 256.035 16.1805 256.035 18.1172H260.035C260.035 16.4445 260.3 15.5424 260.557 15.1232L257.146 13.033ZM256.035 18.1172C256.035 20.556 256.356 22.6977 257.218 24.305L260.743 22.4137C260.345 21.6721 260.035 20.319 260.035 18.1172H256.035ZM257.2 24.2711C257.68 25.2083 258.493 26.0613 259.431 26.8412C260.393 27.6418 261.618 28.4723 263.075 29.3344L265.112 25.8921C263.762 25.0928 262.731 24.3836 261.989 23.7662C261.222 23.1282 260.882 22.6849 260.761 22.4476L257.2 24.2711ZM263.072 29.3326C267.055 31.6999 270.261 33.8309 272.709 35.7261C275.181 37.6391 276.781 39.2357 277.653 40.5139L280.957 38.2596C279.738 36.4727 277.757 34.5744 275.158 32.5629C272.536 30.5337 269.182 28.3105 265.116 25.894L263.072 29.3326ZM277.653 40.5139C279.395 43.0685 280.441 47.5049 280.441 54.2109H284.441C284.441 47.2815 283.396 41.8352 280.957 38.2596L277.653 40.5139ZM280.441 54.2109C280.441 59.0848 279.851 62.3524 278.891 64.2735L282.469 66.0624C283.857 63.2856 284.441 59.2485 284.441 54.2109H280.441ZM278.882 64.2911C278 66.0995 276.189 67.8089 273.107 69.2966L274.846 72.8988C278.41 71.1781 281.068 68.9343 282.477 66.0448L278.882 64.2911ZM273.12 69.2905C270.113 70.7162 266.548 71.4609 262.375 71.4609V75.4609C267.025 75.4609 271.195 74.6301 274.833 72.9048L273.12 69.2905ZM262.375 71.4609C257.784 71.4609 253.984 70.592 250.898 68.9462L249.016 72.4756C252.805 74.4965 257.284 75.4609 262.375 75.4609V71.4609ZM250.904 68.9495C247.8 67.2802 245.974 65.2734 245.127 63.0069L241.38 64.4072C242.653 67.8126 245.296 70.4751 249.01 72.4724L250.904 68.9495ZM245.127 63.0069C244.191 60.5003 243.664 56.7543 243.664 51.6328H239.664C239.664 56.9384 240.197 61.2419 241.38 64.4072L245.127 63.0069ZM243.664 51.6328V47.0781H239.664V51.6328H243.664ZM241.664 49.0781H258.465V45.0781H241.664V49.0781ZM256.465 47.0781V55.543H260.465V47.0781H256.465ZM256.465 55.543C256.465 56.8941 256.524 58.0639 256.655 59.0259C256.779 59.9297 256.994 60.8784 257.449 61.6185L260.856 59.5221C260.869 59.5442 260.831 59.4869 260.775 59.2907C260.722 59.1032 260.667 58.8392 260.618 58.4839C260.521 57.7701 260.465 56.7986 260.465 55.543H256.465ZM257.478 61.6648C258.459 63.1641 260.072 63.6875 261.688 63.6875V59.6875C261.283 59.6875 261.062 59.6238 260.958 59.578C260.875 59.5417 260.85 59.5115 260.826 59.4758L257.478 61.6648ZM261.688 63.6875C263.515 63.6875 265.09 62.9106 266.062 61.3061L262.641 59.2329C262.468 59.5191 262.266 59.6875 261.688 59.6875V63.6875ZM266.039 61.3433C266.939 59.9289 267.254 58.0755 267.254 56.0586H263.254C263.254 57.7657 262.967 58.7196 262.664 59.1958L266.039 61.3433ZM267.254 56.0586C267.254 53.9338 267.11 52.0912 266.793 50.5692C266.482 49.0797 265.966 47.7026 265.075 46.6968L262.081 49.3501C262.307 49.6047 262.629 50.1969 262.877 51.3859C263.118 52.5422 263.254 54.0871 263.254 56.0586H267.254ZM265.058 46.6781C263.711 45.1962 260.663 42.9557 256.21 40.0348L254.016 43.3793C258.559 46.3594 261.154 48.3298 262.098 49.3688L265.058 46.6781ZM256.218 40.0397C251.708 37.0522 248.858 34.9708 247.531 33.748L244.82 36.6895C246.415 38.1594 249.524 40.4035 254.009 43.3744L256.218 40.0397ZM247.531 33.748C246.339 32.6493 245.268 31.0578 244.374 28.8747L240.673 30.3909C241.726 32.9631 243.091 35.0955 244.82 36.6895L247.531 33.748ZM244.382 28.8939C243.562 26.8312 243.105 24.0687 243.105 20.5234H239.105C239.105 24.3688 239.594 27.6792 240.665 30.3717L244.382 28.8939ZM243.105 20.5234C243.105 15.2798 243.782 11.8034 244.88 9.79507L241.37 7.8768C239.775 10.7955 239.105 15.1108 239.105 20.5234H243.105ZM244.871 9.81067C246.002 7.7852 247.848 6.13154 250.567 4.90003L248.917 1.25622C245.564 2.77471 242.998 4.95959 241.379 7.86121L244.871 9.81067ZM250.581 4.89354C253.291 3.64091 256.656 2.97266 260.742 2.97266V-1.02734C256.235 -1.02734 252.266 -0.291956 248.903 1.26271L250.581 4.89354ZM260.742 2.97266C265.233 2.97266 268.927 3.69928 271.893 5.06638L273.568 1.43362C269.945 -0.235734 265.647 -1.02734 260.742 -1.02734V2.97266ZM271.899 5.06912C274.971 6.4726 276.697 8.11188 277.486 9.8388L281.124 8.17682C279.793 5.26312 277.136 3.06386 273.562 1.43088L271.899 5.06912ZM277.498 9.86593C278.38 11.7218 278.938 15.2366 278.938 20.7383H282.938C282.938 15.1827 282.407 10.8772 281.111 8.1497L277.498 9.86593ZM278.938 20.7383V23.4883H282.938V20.7383H278.938Z" fill="#EA7724" mask="url(#path-1-inside-1_64_28)"/>
</svg>
