<svg width="253" height="160" viewBox="0 0 253 160" fill="none" xmlns="http://www.w3.org/2000/svg">
<path d="M19.6992 0.433594V56.0781H30.6992V70H1.60938V0.433594H19.6992ZM53.2148 0.433594V70H35.125V0.433594H53.2148ZM60.4766 0.433594H91.1133V14.3555H78.5664V27.5469H89.7383V40.7812H78.5664V70H60.4766V0.433594ZM95.5391 0.433594H125.703V14.3555H113.629V27.5469H124.93V40.7812H113.629V56.0781H126.906V70H95.5391V0.433594ZM39.9375 109.488H23.1367V104.332C23.1367 101.926 22.9219 100.393 22.4922 99.7344C22.0625 99.0755 21.3464 98.7461 20.3438 98.7461C19.2552 98.7461 18.4245 99.1901 17.8516 100.078C17.3073 100.966 17.0352 102.312 17.0352 104.117C17.0352 106.438 17.3503 108.185 17.9805 109.359C18.582 110.534 20.2865 111.952 23.0938 113.613C31.1432 118.397 36.2135 122.322 38.3047 125.387C40.3958 128.452 41.4414 133.393 41.4414 140.211C41.4414 145.167 40.8542 148.819 39.6797 151.168C38.5339 153.517 36.2995 155.493 32.9766 157.098C29.6536 158.673 25.7865 159.461 21.375 159.461C16.5339 159.461 12.3945 158.544 8.95703 156.711C5.54818 154.878 3.3138 152.543 2.25391 149.707C1.19401 146.871 0.664062 142.846 0.664062 137.633V133.078H17.4648V141.543C17.4648 144.15 17.694 145.826 18.1523 146.57C18.6393 147.315 19.4844 147.688 20.6875 147.688C21.8906 147.688 22.7786 147.215 23.3516 146.27C23.9531 145.324 24.2539 143.921 24.2539 142.059C24.2539 137.962 23.6953 135.284 22.5781 134.023C21.4323 132.763 18.6107 130.658 14.1133 127.707C9.61589 124.728 6.63672 122.565 5.17578 121.219C3.71484 119.872 2.4974 118.01 1.52344 115.633C0.578125 113.255 0.105469 110.219 0.105469 106.523C0.105469 101.195 0.778646 97.2995 2.125 94.8359C3.5 92.3724 5.70573 90.4531 8.74219 89.0781C11.7786 87.6745 15.4453 86.9727 19.7422 86.9727C24.4401 86.9727 28.4362 87.7318 31.7305 89.25C35.0534 90.7682 37.2448 92.6875 38.3047 95.0078C39.3932 97.2995 39.9375 101.21 39.9375 106.738V109.488ZM78.3945 88.4336L88.75 158H70.2305L69.3281 145.496H62.8398L61.7656 158H43.0312L52.2266 88.4336H78.3945ZM68.8125 133.164C67.8958 125.286 66.9792 115.561 66.0625 103.988C64.2292 117.28 63.0833 127.005 62.625 133.164H68.8125ZM134.812 88.4336L125.617 158H98.1602L87.7188 88.4336H106.797C109.003 107.598 110.578 123.797 111.523 137.031C112.469 123.654 113.457 111.766 114.488 101.367L115.734 88.4336H134.812ZM155.996 88.4336V158H137.906V88.4336H155.996ZM203.648 88.4336V158H187.793L178.383 126.375V158H163.258V88.4336H178.383L188.523 119.758V88.4336H203.648ZM252.461 114.043H234.371V107.727C234.371 103.745 234.199 101.253 233.855 100.25C233.512 99.2474 232.695 98.7461 231.406 98.7461C230.289 98.7461 229.53 99.1758 229.129 100.035C228.728 100.895 228.527 103.1 228.527 106.652V140.039C228.527 143.161 228.728 145.224 229.129 146.227C229.53 147.201 230.332 147.688 231.535 147.688C232.853 147.688 233.741 147.129 234.199 146.012C234.686 144.895 234.93 142.717 234.93 139.48V131.23H231.277V120.66H252.461V158H241.074L239.398 153.016C238.167 155.164 236.605 156.783 234.715 157.871C232.853 158.931 230.647 159.461 228.098 159.461C225.061 159.461 222.211 158.73 219.547 157.27C216.911 155.78 214.906 153.947 213.531 151.77C212.156 149.592 211.297 147.315 210.953 144.938C210.609 142.531 210.438 138.936 210.438 134.152V113.484C210.438 106.839 210.796 102.012 211.512 99.0039C212.228 95.9961 214.276 93.2461 217.656 90.7539C221.065 88.2331 225.462 86.9727 230.848 86.9727C236.147 86.9727 240.544 88.0612 244.039 90.2383C247.534 92.4154 249.811 95.0078 250.871 98.0156C251.931 100.995 252.461 105.335 252.461 111.035V114.043Z" fill="#EA7724"/>
</svg>
