<svg width="731" height="31" viewBox="0 0 731 31" fill="none" xmlns="http://www.w3.org/2000/svg">
<path d="M4.432 4.416V11.968H10.288C12.08 11.968 14.288 11.072 14.288 8.192C14.288 5.184 12.464 4.416 10.352 4.416H4.432ZM0.432 24V1.152H10.512C17.04 1.152 18.288 5.376 18.288 8.224C18.288 11.04 17.04 15.264 10.512 15.232H4.432V24H0.432ZM21.2638 24V7.456H24.6878V10.656H24.7518C25.1678 8.896 27.3438 7.008 29.5838 7.008C30.4158 7.008 30.6398 7.072 30.9598 7.104V10.624C30.4478 10.56 29.9038 10.464 29.3918 10.464C26.8958 10.464 24.9118 12.48 24.9118 16.128V24H21.2638ZM39.5353 21.568C42.7993 21.568 44.2393 18.592 44.2393 15.712C44.2393 12.864 42.7993 9.888 39.5353 9.888C36.2713 9.888 34.8313 12.864 34.8313 15.712C34.8313 18.592 36.2713 21.568 39.5353 21.568ZM39.5353 24.448C34.2233 24.448 31.1833 20.8 31.1833 15.712C31.1833 10.656 34.2233 7.008 39.5353 7.008C44.8473 7.008 47.8873 10.656 47.8873 15.712C47.8873 20.8 44.8473 24.448 39.5353 24.448ZM49.256 10.176V7.456H52.008V2.496H55.656V7.456H58.952V10.176H55.656V19.008C55.656 20.512 55.784 21.28 57.416 21.28C57.928 21.28 58.44 21.28 58.952 21.152V23.968C58.152 24.032 57.384 24.16 56.584 24.16C52.776 24.16 52.072 22.688 52.008 19.936V10.176H49.256ZM76.5843 16.672H64.4243C64.4243 19.264 65.8323 21.568 68.8723 21.568C70.9843 21.568 72.2643 20.64 72.9043 18.816H76.3603C75.5603 22.432 72.4883 24.448 68.8723 24.448C63.6883 24.448 60.7763 20.832 60.7763 15.744C60.7763 11.04 63.8483 7.008 68.7763 7.008C73.9923 7.008 77.1923 11.712 76.5843 16.672ZM64.4243 14.272H72.9363C72.8083 11.968 71.2403 9.888 68.7763 9.888C66.2483 9.888 64.5203 11.808 64.4243 14.272ZM94.1735 12.992H90.5255C90.2375 10.976 88.7655 9.888 86.7495 9.888C84.8615 9.888 82.2055 10.88 82.2055 15.904C82.2055 18.656 83.4215 21.568 86.5895 21.568C88.7015 21.568 90.1735 20.16 90.5255 17.792H94.1735C93.5015 22.08 90.8455 24.448 86.5895 24.448C81.4055 24.448 78.5575 20.768 78.5575 15.904C78.5575 10.912 81.2775 7.008 86.7175 7.008C90.5575 7.008 93.8215 8.928 94.1735 12.992ZM95.4748 10.176V7.456H98.2268V2.496H101.875V7.456H105.171V10.176H101.875V19.008C101.875 20.512 102.003 21.28 103.635 21.28C104.147 21.28 104.659 21.28 105.171 21.152V23.968C104.371 24.032 103.603 24.16 102.803 24.16C98.9948 24.16 98.2908 22.688 98.2268 19.936V10.176H95.4748ZM123.165 24V15.04L114.589 1.152H119.229L125.277 11.392L131.229 1.152H135.709L127.165 15.04V24H123.165ZM142.098 21.568C145.362 21.568 146.802 18.592 146.802 15.712C146.802 12.864 145.362 9.888 142.098 9.888C138.834 9.888 137.394 12.864 137.394 15.712C137.394 18.592 138.834 21.568 142.098 21.568ZM142.098 24.448C136.786 24.448 133.746 20.8 133.746 15.712C133.746 10.656 136.786 7.008 142.098 7.008C147.41 7.008 150.45 10.656 150.45 15.712C150.45 20.8 147.41 24.448 142.098 24.448ZM168.01 7.456V24H164.427V21.696H164.363C163.467 23.36 161.483 24.448 159.659 24.448C155.339 24.448 153.483 22.272 153.483 17.952V7.456H157.131V17.6C157.131 20.512 158.315 21.568 160.299 21.568C163.339 21.568 164.363 19.616 164.363 17.056V7.456H168.01ZM171.858 24V7.456H175.282V10.656H175.346C175.762 8.896 177.938 7.008 180.178 7.008C181.01 7.008 181.234 7.072 181.554 7.104V10.624C181.042 10.56 180.498 10.464 179.986 10.464C177.49 10.464 175.506 12.48 175.506 16.128V24H171.858ZM192.526 24V1.152H208.974V4.608H196.526V10.592H208.046V13.856H196.526V20.544H209.198V24H192.526ZM212.17 24V7.456H215.626V9.76H215.722C216.81 8.128 218.186 7.008 220.81 7.008C222.826 7.008 224.714 7.872 225.45 9.76C226.666 8.064 228.234 7.008 230.634 7.008C234.122 7.008 236.17 8.544 236.17 12.576V24H232.522V14.336C232.522 11.712 232.362 9.888 229.514 9.888C227.05 9.888 225.994 11.52 225.994 14.304V24H222.346V13.376C222.346 11.104 221.642 9.888 219.434 9.888C217.546 9.888 215.818 11.424 215.818 14.176V24H212.17ZM252.846 15.744C252.846 12.736 251.278 9.888 248.27 9.888C245.198 9.888 243.63 12.224 243.63 15.744C243.63 19.072 245.326 21.568 248.27 21.568C251.598 21.568 252.846 18.624 252.846 15.744ZM240.11 30.112V7.456H243.566V9.696H243.63C244.654 7.808 246.638 7.008 248.75 7.008C253.966 7.008 256.494 10.976 256.494 15.808C256.494 20.256 254.254 24.448 249.358 24.448C247.246 24.448 244.974 23.68 243.822 21.856H243.758V30.112H240.11ZM259.672 24V1.152H263.32V24H259.672ZM274.879 21.568C278.143 21.568 279.583 18.592 279.583 15.712C279.583 12.864 278.143 9.888 274.879 9.888C271.615 9.888 270.175 12.864 270.175 15.712C270.175 18.592 271.615 21.568 274.879 21.568ZM274.879 24.448C269.567 24.448 266.527 20.8 266.527 15.712C266.527 10.656 269.567 7.008 274.879 7.008C280.191 7.008 283.231 10.656 283.231 15.712C283.231 20.8 280.191 24.448 274.879 24.448ZM290.712 23.936L284.44 7.456H288.44L292.76 19.808H292.824L297.016 7.456H300.824L294.392 24.896C293.208 27.872 292.344 30.56 288.536 30.56C287.672 30.56 286.84 30.496 286.008 30.368V27.296C286.584 27.392 287.16 27.52 287.736 27.52C289.432 27.52 289.848 26.624 290.296 25.216L290.712 23.936ZM317.866 16.672H305.706C305.706 19.264 307.114 21.568 310.154 21.568C312.266 21.568 313.546 20.64 314.186 18.816H317.642C316.842 22.432 313.77 24.448 310.154 24.448C304.97 24.448 302.058 20.832 302.058 15.744C302.058 11.04 305.13 7.008 310.058 7.008C315.274 7.008 318.474 11.712 317.866 16.672ZM305.706 14.272H314.218C314.09 11.968 312.522 9.888 310.058 9.888C307.53 9.888 305.802 11.808 305.706 14.272ZM335.647 16.672H323.487C323.487 19.264 324.895 21.568 327.935 21.568C330.047 21.568 331.327 20.64 331.967 18.816H335.423C334.623 22.432 331.551 24.448 327.935 24.448C322.751 24.448 319.839 20.832 319.839 15.744C319.839 11.04 322.911 7.008 327.839 7.008C333.055 7.008 336.255 11.712 335.647 16.672ZM323.487 14.272H331.999C331.871 11.968 330.303 9.888 327.839 9.888C325.311 9.888 323.583 11.808 323.487 14.272ZM337.524 18.688H341.172C341.364 20.8 342.964 21.568 344.916 21.568C346.292 21.568 348.692 21.28 348.596 19.392C348.5 17.472 345.844 17.248 343.188 16.64C340.5 16.064 337.876 15.104 337.876 11.744C337.876 8.128 341.78 7.008 344.788 7.008C348.18 7.008 351.252 8.416 351.7 12.096H347.892C347.572 10.368 346.132 9.888 344.532 9.888C343.476 9.888 341.524 10.144 341.524 11.584C341.524 13.376 344.212 13.632 346.9 14.24C349.556 14.848 352.244 15.808 352.244 19.072C352.244 23.008 348.276 24.448 344.852 24.448C340.692 24.448 337.588 22.592 337.524 18.688ZM355.302 24V19.68H359.75V24H355.302ZM377.338 4.416V11.968H383.194C384.986 11.968 387.194 11.072 387.194 8.192C387.194 5.184 385.37 4.416 383.258 4.416H377.338ZM373.338 24V1.152H383.418C389.946 1.152 391.194 5.376 391.194 8.224C391.194 11.04 389.946 15.264 383.418 15.232H377.338V24H373.338ZM394.17 24V7.456H397.594V10.656H397.658C398.074 8.896 400.25 7.008 402.49 7.008C403.322 7.008 403.546 7.072 403.866 7.104V10.624C403.354 10.56 402.81 10.464 402.298 10.464C399.802 10.464 397.818 12.48 397.818 16.128V24H394.17ZM412.442 21.568C415.706 21.568 417.146 18.592 417.146 15.712C417.146 12.864 415.706 9.888 412.442 9.888C409.178 9.888 407.738 12.864 407.738 15.712C407.738 18.592 409.178 21.568 412.442 21.568ZM412.442 24.448C407.13 24.448 404.09 20.8 404.09 15.712C404.09 10.656 407.13 7.008 412.442 7.008C417.754 7.008 420.794 10.656 420.794 15.712C420.794 20.8 417.754 24.448 412.442 24.448ZM422.162 10.176V7.456H424.914V2.496H428.562V7.456H431.858V10.176H428.562V19.008C428.562 20.512 428.69 21.28 430.322 21.28C430.834 21.28 431.346 21.28 431.858 21.152V23.968C431.058 24.032 430.29 24.16 429.49 24.16C425.682 24.16 424.978 22.688 424.914 19.936V10.176H422.162ZM449.491 16.672H437.331C437.331 19.264 438.739 21.568 441.779 21.568C443.891 21.568 445.171 20.64 445.811 18.816H449.267C448.467 22.432 445.395 24.448 441.779 24.448C436.595 24.448 433.683 20.832 433.683 15.744C433.683 11.04 436.755 7.008 441.683 7.008C446.899 7.008 450.099 11.712 449.491 16.672ZM437.331 14.272H445.843C445.715 11.968 444.147 9.888 441.683 9.888C439.155 9.888 437.427 11.808 437.331 14.272ZM467.08 12.992H463.432C463.144 10.976 461.672 9.888 459.656 9.888C457.768 9.888 455.112 10.88 455.112 15.904C455.112 18.656 456.328 21.568 459.496 21.568C461.608 21.568 463.08 20.16 463.432 17.792H467.08C466.408 22.08 463.752 24.448 459.496 24.448C454.312 24.448 451.464 20.768 451.464 15.904C451.464 10.912 454.184 7.008 459.624 7.008C463.464 7.008 466.728 8.928 467.08 12.992ZM468.381 10.176V7.456H471.133V2.496H474.781V7.456H478.077V10.176H474.781V19.008C474.781 20.512 474.909 21.28 476.541 21.28C477.053 21.28 477.565 21.28 478.077 21.152V23.968C477.277 24.032 476.509 24.16 475.709 24.16C471.901 24.16 471.197 22.688 471.133 19.936V10.176H468.381ZM496.072 24V15.04L487.495 1.152H492.136L498.184 11.392L504.135 1.152H508.616L500.072 15.04V24H496.072ZM515.004 21.568C518.268 21.568 519.708 18.592 519.708 15.712C519.708 12.864 518.268 9.888 515.004 9.888C511.74 9.888 510.3 12.864 510.3 15.712C510.3 18.592 511.74 21.568 515.004 21.568ZM515.004 24.448C509.692 24.448 506.652 20.8 506.652 15.712C506.652 10.656 509.692 7.008 515.004 7.008C520.316 7.008 523.356 10.656 523.356 15.712C523.356 20.8 520.316 24.448 515.004 24.448ZM540.917 7.456V24H537.333V21.696H537.269C536.373 23.36 534.389 24.448 532.565 24.448C528.245 24.448 526.389 22.272 526.389 17.952V7.456H530.037V17.6C530.037 20.512 531.221 21.568 533.205 21.568C536.245 21.568 537.269 19.616 537.269 17.056V7.456H540.917ZM544.764 24V7.456H548.188V10.656H548.252C548.668 8.896 550.844 7.008 553.084 7.008C553.916 7.008 554.14 7.072 554.46 7.104V10.624C553.948 10.56 553.404 10.464 552.892 10.464C550.396 10.464 548.412 12.48 548.412 16.128V24H544.764ZM584.856 8.416H580.856C580.184 5.792 578.488 3.872 575.16 3.872C570.264 3.872 568.216 8.192 568.216 12.576C568.216 16.96 570.264 21.28 575.16 21.28C578.712 21.28 580.664 18.624 580.984 15.296H584.888C584.568 20.768 580.696 24.544 575.16 24.544C568.312 24.544 564.216 19.104 564.216 12.576C564.216 6.048 568.312 0.608 575.16 0.608C580.312 0.639999 584.376 3.488 584.856 8.416ZM602.542 7.456V24H598.958V21.696H598.894C597.998 23.36 596.014 24.448 594.19 24.448C589.87 24.448 588.014 22.272 588.014 17.952V7.456H591.662V17.6C591.662 20.512 592.846 21.568 594.83 21.568C597.87 21.568 598.894 19.616 598.894 17.056V7.456H602.542ZM605.493 18.688H609.141C609.333 20.8 610.933 21.568 612.885 21.568C614.261 21.568 616.661 21.28 616.565 19.392C616.469 17.472 613.813 17.248 611.157 16.64C608.469 16.064 605.845 15.104 605.845 11.744C605.845 8.128 609.749 7.008 612.757 7.008C616.149 7.008 619.221 8.416 619.669 12.096H615.861C615.541 10.368 614.101 9.888 612.501 9.888C611.445 9.888 609.493 10.144 609.493 11.584C609.493 13.376 612.181 13.632 614.869 14.24C617.525 14.848 620.213 15.808 620.213 19.072C620.213 23.008 616.245 24.448 612.821 24.448C608.661 24.448 605.557 22.592 605.493 18.688ZM621.319 10.176V7.456H624.071V2.496H627.719V7.456H631.015V10.176H627.719V19.008C627.719 20.512 627.847 21.28 629.479 21.28C629.991 21.28 630.503 21.28 631.015 21.152V23.968C630.215 24.032 629.447 24.16 628.647 24.16C624.839 24.16 624.135 22.688 624.071 19.936V10.176H621.319ZM641.223 21.568C644.487 21.568 645.927 18.592 645.927 15.712C645.927 12.864 644.487 9.888 641.223 9.888C637.959 9.888 636.519 12.864 636.519 15.712C636.519 18.592 637.959 21.568 641.223 21.568ZM641.223 24.448C635.911 24.448 632.871 20.8 632.871 15.712C632.871 10.656 635.911 7.008 641.223 7.008C646.535 7.008 649.575 10.656 649.575 15.712C649.575 20.8 646.535 24.448 641.223 24.448ZM652.608 24V7.456H656.064V9.76H656.16C657.248 8.128 658.624 7.008 661.248 7.008C663.264 7.008 665.152 7.872 665.888 9.76C667.104 8.064 668.672 7.008 671.072 7.008C674.56 7.008 676.608 8.544 676.608 12.576V24H672.96V14.336C672.96 11.712 672.8 9.888 669.952 9.888C667.488 9.888 666.432 11.52 666.432 14.304V24H662.784V13.376C662.784 11.104 662.08 9.888 659.872 9.888C657.984 9.888 656.256 11.424 656.256 14.176V24H652.608ZM695.459 16.672H683.299C683.299 19.264 684.707 21.568 687.747 21.568C689.859 21.568 691.139 20.64 691.779 18.816H695.235C694.435 22.432 691.363 24.448 687.747 24.448C682.563 24.448 679.651 20.832 679.651 15.744C679.651 11.04 682.723 7.008 687.651 7.008C692.867 7.008 696.067 11.712 695.459 16.672ZM683.299 14.272H691.811C691.683 11.968 690.115 9.888 687.651 9.888C685.123 9.888 683.395 11.808 683.299 14.272ZM698.233 24V7.456H701.657V10.656H701.721C702.137 8.896 704.312 7.008 706.553 7.008C707.385 7.008 707.609 7.072 707.929 7.104V10.624C707.417 10.56 706.873 10.464 706.361 10.464C703.865 10.464 701.881 12.48 701.881 16.128V24H698.233ZM708.587 18.688H712.235C712.427 20.8 714.027 21.568 715.979 21.568C717.355 21.568 719.755 21.28 719.659 19.392C719.563 17.472 716.907 17.248 714.251 16.64C711.562 16.064 708.939 15.104 708.939 11.744C708.939 8.128 712.843 7.008 715.851 7.008C719.243 7.008 722.315 8.416 722.763 12.096H718.955C718.635 10.368 717.195 9.888 715.595 9.888C714.539 9.888 712.587 10.144 712.587 11.584C712.587 13.376 715.275 13.632 717.963 14.24C720.619 14.848 723.307 15.808 723.307 19.072C723.307 23.008 719.339 24.448 715.915 24.448C711.755 24.448 708.651 22.592 708.587 18.688ZM726.364 24V19.68H730.812V24H726.364Z" fill="#131313"/>
</svg>
