<svg xmlns="http://www.w3.org/2000/svg" version="1.1" xmlns:xlink="http://www.w3.org/1999/xlink" xmlns:svgjs="http://svgjs.dev/svgjs" width="1000" height="1000"><style>
    #light-icon {
      display: inline;
    }
    #dark-icon {
      display: none;
    }

    @media (prefers-color-scheme: dark) {
      #light-icon {
        display: none;
      }
      #dark-icon {
        display: inline;
      }
    }
  </style><g id="light-icon"><svg xmlns="http://www.w3.org/2000/svg" version="1.1" xmlns:xlink="http://www.w3.org/1999/xlink" xmlns:svgjs="http://svgjs.dev/svgjs" width="1000" height="1000"><g><g transform="matrix(23.25581395348837,0,0,23.25581395348837,23.255813953488428,0)"><svg xmlns="http://www.w3.org/2000/svg" version="1.1" xmlns:xlink="http://www.w3.org/1999/xlink" xmlns:svgjs="http://svgjs.dev/svgjs" width="41" height="43"><svg width="41" height="43" viewBox="0 0 41 43" fill="none" xmlns="http://www.w3.org/2000/svg">
<g id="Group">
<path id="Vector" d="M17.7364 34.9405V36.2257C17.6871 36.9824 17.4034 37.8112 16.984 38.4598C16.799 38.736 16.318 39.1324 16.3796 39.4567C16.3796 39.4927 16.4166 39.5528 16.4413 39.6128C17.317 40.6218 18.1804 41.6067 18.3038 43.012H23.0771C23.2004 41.5466 23.8171 40.5017 24.7792 39.4687C24.7792 39.3486 24.7792 39.2405 24.7175 39.1324C24.6805 39.0603 24.5942 39.0243 24.5449 38.9522C23.8665 37.9433 23.4471 37.1265 23.3854 35.8774V34.9405V29.1631V18.4131C23.4471 18.293 23.4965 18.257 23.6198 18.233C24.1008 18.1729 32.155 18.1969 32.6114 18.293C34.9549 18.8455 35.7319 20.0226 37.1504 21.7042C37.4094 22.0165 37.4834 21.8243 37.7054 21.7162C38.0384 21.5601 38.2851 21.3799 38.5811 21.1997C39.2348 20.8154 39.8762 20.431 40.5299 20.0466C40.6163 19.9746 40.6039 19.8665 40.5793 19.7704C38.4455 18.1249 36.99 15.6746 36.9407 12.9L13.8881 12.924H7.94307H3.95913C3.65078 15.7226 2.17068 18.1849 -0.000133383 19.8184C-0.000133383 19.8905 -0.0124675 19.9626 -0.000133383 20.0226L3.15741 21.9084C3.33009 21.9084 4.0208 20.8874 4.18115 20.6952C5.18022 19.5302 6.4013 18.6173 7.94307 18.293L13.6415 18.1969C13.6415 18.1969 17.465 18.233 17.4774 18.233C17.5884 18.233 17.6377 18.257 17.6994 18.317V29.1511L17.7241 34.9285L17.7364 34.9405Z" fill="black"></path>
<path id="Vector_2" d="M23.2869 34.7844H29.158C29.158 34.7844 29.3677 34.5682 29.676 34.3279C30.7984 32.8386 32.3155 31.6494 34.0916 30.9288C34.1657 30.6285 33.808 30.4123 33.66 30.1841C32.6732 28.6707 32.9939 24.755 32.9816 22.3648C32.9816 22.2207 32.8582 22.1006 32.7102 22.1006H27.3202C27.1722 22.1006 27.0488 22.2207 27.0488 22.3648V27.4816C27.0488 27.6617 26.9625 27.8179 26.8268 27.926L25.3344 29.055C25.2357 29.1271 25.1124 29.1751 24.9767 29.1751H23.2993L17.6502 29.1992H15.4917C15.0847 28.8989 14.6037 28.6346 14.209 28.3344C13.9993 28.1782 13.5923 27.8779 13.5553 27.6497V18.2089V12.936V7.21872C13.5676 6.94246 14.0116 6.64218 14.246 6.47402C14.4433 6.32989 15.282 5.65726 15.5041 5.62123L25.174 5.75335C25.2974 5.75335 25.4207 5.8014 25.5194 5.87347L26.8515 6.8824C26.9995 6.99051 27.0735 7.15866 27.0735 7.33883C27.0735 8.10754 27.0488 8.99637 27.0365 9.93324C27.0365 10.0774 27.1598 10.1975 27.3079 10.1975H32.6732C32.8212 10.1975 32.9446 10.0774 32.9446 9.93324C32.9322 8.51592 32.9199 7.21872 32.9446 6.70224C32.9939 5.9095 33.2159 5.35699 33.66 4.69637C33.7586 4.55224 34.0053 4.33604 34.0793 4.13185C32.0935 3.31509 30.4161 1.92179 29.2813 0.18017C29.1826 0.108103 29.1333 0.0600586 29.1333 0.0600586H11.5695C10.41 1.89777 8.67093 3.35112 6.59879 4.16788C6.66046 4.21592 6.73447 4.26397 6.77147 4.32402C7.85687 5.56118 7.73353 6.57011 7.77054 8.08352C7.80754 9.69302 7.84454 11.3145 7.85687 12.948L7.88154 18.3291C7.88154 21.1757 7.83221 24.0103 7.77054 26.7969C7.74587 27.6617 7.85687 28.4425 7.54852 29.2832C7.43751 29.5835 6.93181 30.4123 6.69746 30.6285C6.58646 30.7366 6.45078 30.6765 6.50012 30.8687C6.52478 30.8927 6.56179 30.9168 6.59879 30.9408C8.38724 31.6494 9.92901 32.8265 11.0638 34.3279C11.3844 34.5922 11.6065 34.7844 11.6311 34.8444H17.6625H23.2993L23.2869 34.7844Z" fill="#EA7724"></path>
</g>
</svg></svg></g></g></svg></g><g id="dark-icon"><svg xmlns="http://www.w3.org/2000/svg" version="1.1" xmlns:xlink="http://www.w3.org/1999/xlink" xmlns:svgjs="http://svgjs.dev/svgjs" width="1000" height="1000"><g clip-path="url(#SvgjsClipPath1056)"><rect width="1000" height="1000" fill="#ffffff"></rect><g transform="matrix(16.27906976744186,0,0,16.27906976744186,166.27906976744185,150)"><svg xmlns="http://www.w3.org/2000/svg" version="1.1" xmlns:xlink="http://www.w3.org/1999/xlink" xmlns:svgjs="http://svgjs.dev/svgjs" width="41" height="43"><svg width="41" height="43" viewBox="0 0 41 43" fill="none" xmlns="http://www.w3.org/2000/svg">
<g id="Group">
<path id="Vector" d="M17.7364 34.9405V36.2257C17.6871 36.9824 17.4034 37.8112 16.984 38.4598C16.799 38.736 16.318 39.1324 16.3796 39.4567C16.3796 39.4927 16.4166 39.5528 16.4413 39.6128C17.317 40.6218 18.1804 41.6067 18.3038 43.012H23.0771C23.2004 41.5466 23.8171 40.5017 24.7792 39.4687C24.7792 39.3486 24.7792 39.2405 24.7175 39.1324C24.6805 39.0603 24.5942 39.0243 24.5449 38.9522C23.8665 37.9433 23.4471 37.1265 23.3854 35.8774V34.9405V29.1631V18.4131C23.4471 18.293 23.4965 18.257 23.6198 18.233C24.1008 18.1729 32.155 18.1969 32.6114 18.293C34.9549 18.8455 35.7319 20.0226 37.1504 21.7042C37.4094 22.0165 37.4834 21.8243 37.7054 21.7162C38.0384 21.5601 38.2851 21.3799 38.5811 21.1997C39.2348 20.8154 39.8762 20.431 40.5299 20.0466C40.6163 19.9746 40.6039 19.8665 40.5793 19.7704C38.4455 18.1249 36.99 15.6746 36.9407 12.9L13.8881 12.924H7.94307H3.95913C3.65078 15.7226 2.17068 18.1849 -0.000133383 19.8184C-0.000133383 19.8905 -0.0124675 19.9626 -0.000133383 20.0226L3.15741 21.9084C3.33009 21.9084 4.0208 20.8874 4.18115 20.6952C5.18022 19.5302 6.4013 18.6173 7.94307 18.293L13.6415 18.1969C13.6415 18.1969 17.465 18.233 17.4774 18.233C17.5884 18.233 17.6377 18.257 17.6994 18.317V29.1511L17.7241 34.9285L17.7364 34.9405Z" fill="black"></path>
<path id="Vector_2" d="M23.2869 34.7844H29.158C29.158 34.7844 29.3677 34.5682 29.676 34.3279C30.7984 32.8386 32.3155 31.6494 34.0916 30.9288C34.1657 30.6285 33.808 30.4123 33.66 30.1841C32.6732 28.6707 32.9939 24.755 32.9816 22.3648C32.9816 22.2207 32.8582 22.1006 32.7102 22.1006H27.3202C27.1722 22.1006 27.0488 22.2207 27.0488 22.3648V27.4816C27.0488 27.6617 26.9625 27.8179 26.8268 27.926L25.3344 29.055C25.2357 29.1271 25.1124 29.1751 24.9767 29.1751H23.2993L17.6502 29.1992H15.4917C15.0847 28.8989 14.6037 28.6346 14.209 28.3344C13.9993 28.1782 13.5923 27.8779 13.5553 27.6497V18.2089V12.936V7.21872C13.5676 6.94246 14.0116 6.64218 14.246 6.47402C14.4433 6.32989 15.282 5.65726 15.5041 5.62123L25.174 5.75335C25.2974 5.75335 25.4207 5.8014 25.5194 5.87347L26.8515 6.8824C26.9995 6.99051 27.0735 7.15866 27.0735 7.33883C27.0735 8.10754 27.0488 8.99637 27.0365 9.93324C27.0365 10.0774 27.1598 10.1975 27.3079 10.1975H32.6732C32.8212 10.1975 32.9446 10.0774 32.9446 9.93324C32.9322 8.51592 32.9199 7.21872 32.9446 6.70224C32.9939 5.9095 33.2159 5.35699 33.66 4.69637C33.7586 4.55224 34.0053 4.33604 34.0793 4.13185C32.0935 3.31509 30.4161 1.92179 29.2813 0.18017C29.1826 0.108103 29.1333 0.0600586 29.1333 0.0600586H11.5695C10.41 1.89777 8.67093 3.35112 6.59879 4.16788C6.66046 4.21592 6.73447 4.26397 6.77147 4.32402C7.85687 5.56118 7.73353 6.57011 7.77054 8.08352C7.80754 9.69302 7.84454 11.3145 7.85687 12.948L7.88154 18.3291C7.88154 21.1757 7.83221 24.0103 7.77054 26.7969C7.74587 27.6617 7.85687 28.4425 7.54852 29.2832C7.43751 29.5835 6.93181 30.4123 6.69746 30.6285C6.58646 30.7366 6.45078 30.6765 6.50012 30.8687C6.52478 30.8927 6.56179 30.9168 6.59879 30.9408C8.38724 31.6494 9.92901 32.8265 11.0638 34.3279C11.3844 34.5922 11.6065 34.7844 11.6311 34.8444H17.6625H23.2993L23.2869 34.7844Z" fill="#EA7724"></path>
</g>
</svg></svg></g></g><defs><clipPath id="SvgjsClipPath1056"><rect width="1000" height="1000" x="0" y="0" rx="500" ry="500"></rect></clipPath></defs></svg></g></svg>