<svg xmlns="http://www.w3.org/2000/svg" version="1.1" xmlns:xlink="http://www.w3.org/1999/xlink" width="132.43" height="144"><svg id="SvgjsSvg1023" xmlns="http://www.w3.org/2000/svg" viewBox="0 0 132.43 144"><path d="M23.01,43.05s0-.01,0-.02h-10.03c-1.04,9.28-5.84,17.45-12.83,22.92-.03.24-.04.47.02.67l10.21,6.28c.55,0,2.81-3.4,3.34-4.03,2.58-3.08,5.63-5.6,9.29-7.06v-18.77ZM80.23,130.51c-2.19-3.37-3.54-6.08-3.76-10.22v-1.44s-18.26,0-18.26,0v2.62c-.15,2.54-1.07,5.29-2.44,7.42-.59.92-2.16,2.22-1.97,3.31.02.13.11.31.2.5,2.85,3.36,5.65,6.64,6.03,11.29h15.48c.4-4.88,2.41-8.34,5.5-11.77.04-.38,0-.76-.2-1.11-.13-.23-.42-.38-.57-.61ZM107.64,74.36c0-.49-.4-.87-.88-.87h-17.47c-.49,0-.88.4-.88.88v17.01c0,.59-.26,1.14-.73,1.5l-4.84,3.75c-.33.26-.74.4-1.16.4l-30.74.08c-1.31-1.01-2.87-1.92-4.15-2.91-.67-.51-2.01-1.51-2.12-2.3l-.02-68c.06-.93,1.47-1.91,2.22-2.49.64-.5,3.34-2.71,4.08-2.84l31.33.45c.41,0,.81.15,1.13.4l4.31,3.34c.47.36.74.91.73,1.5-.02,2.56-.07,5.5-.11,8.62,0,.49.39.9.88.9h17.39c.49,0,.89-.4.88-.89-.04-4.73-.07-9.03.03-10.75.15-2.64.89-4.49,2.3-6.68.32-.5,1.13-1.2,1.35-1.89-6.43-2.7-11.85-7.33-15.55-13.17-.31-.25-.48-.38-.49-.39l-56.91-.02c-3.76,6.12-9.4,10.95-16.12,13.7.19.17.42.32.58.51,3.5,4.12,3.11,7.48,3.24,12.51.13,5.36.23,52.99,0,62.26-.07,2.88.28,5.48-.72,8.26-.36.99-2,3.75-2.74,4.47-.35.34-.81.15-.66.79.09.07.2.15.31.24,5.79,2.37,10.78,6.29,14.45,11.25,1.05.89,1.74,1.52,1.82,1.72h56.81c.05-.14.69-.72,1.68-1.54,3.63-4.97,8.57-8.91,14.31-11.32.24-.98-.91-1.72-1.38-2.46-3.18-5.05-2.17-18.07-2.2-26.02ZM132.25,65.8c-6.92-5.49-11.64-13.62-11.78-22.87l-72.68.08v17.56c2.5.03,9.6.1,9.61.11.35,0,.54.08.74.3l.04,32.97h18.32l.04-32.68c.16-.4.31-.53.74-.59,1.55-.21,27.64-.13,29.11.22,7.6,1.82,10.12,5.74,14.72,11.34.84,1.02,1.07.4,1.81.04,1.06-.52,1.87-1.11,2.85-1.71,2.11-1.28,4.2-2.57,6.31-3.84.28-.23.26-.6.18-.93Z" style="fill:#ea7724;"></path></svg><style>@media (prefers-color-scheme: light) { :root { filter: none; } }
@media (prefers-color-scheme: dark) { :root { filter: none; } }
</style></svg>